<?xml version="1.0" standalone="no"?>
<!DOCTYPE svg PUBLIC "-//W3C//DTD SVG 1.1//EN" "http://www.w3.org/Graphics/SVG/1.1/DTD/svg11.dtd" >
<svg xmlns="http://www.w3.org/2000/svg">
<metadata></metadata>
<defs>
<font id="elkjopregular" horiz-adv-x="1150" >
<font-face units-per-em="2048" ascent="1536" descent="-512" />
<missing-glyph horiz-adv-x="620" />
<glyph unicode="&#xfb01;" horiz-adv-x="993" d="M682 961h-305q-51 0 -86 -34.5t-35 -84.5v-754q0 -37 -25.5 -62.5t-62.5 -25.5q-35 0 -60.5 25.5t-25.5 62.5v754q0 122 86 207.5t209 85.5h391q37 0 62.5 -25.5t25.5 -60.5v-963q0 -35 -25.5 -60.5t-62.5 -25.5q-35 0 -60.5 25.5t-25.5 60.5v875zM377 1624h139 q35 0 60.5 -25.5t25.5 -60.5q0 -37 -25.5 -62.5t-60.5 -25.5h-139q-51 0 -86 -34.5t-35 -84.5v-82q0 -37 -25.5 -62.5t-62.5 -25.5q-35 0 -60.5 25.5t-25.5 62.5v82q0 122 86 207.5t209 85.5z" />
<glyph unicode="&#xfb02;" horiz-adv-x="1003" d="M516 1135q35 0 60.5 -25.5t25.5 -60.5q0 -37 -25.5 -62.5t-60.5 -25.5h-139q-51 0 -86 -34.5t-35 -84.5v-754q0 -37 -25.5 -62.5t-62.5 -25.5q-35 0 -60.5 25.5t-25.5 62.5v754q0 122 86 207.5t209 85.5h139zM682 86v1364h-305q-51 0 -86 -34.5t-35 -84.5v-82 q0 -37 -25.5 -62.5t-62.5 -25.5q-35 0 -60.5 25.5t-25.5 62.5v82q0 122 86 207.5t209 85.5h393q35 0 60.5 -25.5t25.5 -60.5v-1452q0 -35 -25.5 -60.5t-60.5 -25.5q-37 0 -62.5 25.5t-25.5 60.5z" />
<glyph horiz-adv-x="0" />
<glyph horiz-adv-x="682" />
<glyph unicode=" "  horiz-adv-x="620" />
<glyph unicode="&#x09;" horiz-adv-x="620" />
<glyph unicode="&#xa0;" horiz-adv-x="620" />
<glyph unicode="!" horiz-adv-x="382" d="M152 -4q-44 0 -75.5 30.5t-31.5 73.5q0 44 31.5 75.5t75.5 31.5q43 0 73.5 -31.5t30.5 -75.5q0 -43 -30.5 -73.5t-73.5 -30.5zM152 410q-37 0 -63 25.5t-26 62.5v917q0 35 26.5 61.5t62.5 26.5q35 0 60.5 -26.5t25.5 -61.5v-917q0 -37 -25.5 -62.5t-60.5 -25.5z" />
<glyph unicode="&#x22;" horiz-adv-x="645" d="M152 1122q-35 0 -60.5 25.5t-25.5 62.5v326q0 35 26 61.5t60 26.5q39 0 63.5 -25.5t24.5 -62.5v-328q0 -34 -27 -60t-61 -26zM412 1122q-35 0 -60.5 25.5t-25.5 62.5v326q0 35 26 61.5t60 26.5q39 0 63.5 -25.5t24.5 -62.5v-328q0 -34 -27 -60t-61 -26z" />
<glyph unicode="#" horiz-adv-x="1212" d="M393 883h-211q-37 0 -62.5 25.5t-25.5 62.5q0 35 25.5 60.5t62.5 25.5h135l50 370q4 31 31 52.5t59 21.5q35 0 59.5 -26t24.5 -60l-62 -457q-4 -32 -29 -53.5t-57 -21.5zM1014 883h-217q-37 0 -62.5 28.5t-25.5 46.5q0 19 63 469q4 32 30.5 53t57.5 21q36 0 60 -25.5 t24 -60.5l-47 -358h117q37 0 62.5 -25.5t25.5 -60.5q0 -37 -25.5 -62.5t-62.5 -25.5zM268 0q-33 0 -57.5 26.5t-24.5 59.5l47 354h-114q-37 0 -62.5 25.5t-25.5 62.5q0 35 25.5 60.5t62.5 25.5h213q36 0 62 -24.5t26 -59.5l-62 -456q-4 -31 -31.5 -52.5t-58.5 -21.5zM672 0 q-34 0 -58 26.5t-24 59.5l61 453q4 34 28 54.5t58 20.5h213q35 0 60.5 -25.5t25.5 -60.5q0 -37 -25.5 -62.5t-60.5 -25.5h-137l-49 -366q-4 -31 -32 -52.5t-60 -21.5z" />
<glyph unicode="$" horiz-adv-x="1056" d="M715 80q-38 0 -64 26t-26 62q0 44 39 72q34 25 53 43t37 54.5t18 82.5q0 65 -32 119t-81 89.5t-116 69.5t-128.5 57t-126 53.5t-102.5 57.5q-62 44 -97.5 112t-35.5 152q0 103 48 182t104 113q24 15 47 15q39 0 63.5 -25t24.5 -61q0 -27 -17.5 -51t-38 -41t-38 -54 t-17.5 -88q0 -14 2 -26t16 -38t38.5 -48.5t75.5 -51t122 -51.5q128 -42 187 -71q276 -135 276 -396q0 -109 -47.5 -202t-136.5 -142q-25 -14 -47 -14zM774 1241q-18 0 -45 16q-16 9 -44 26.5t-33 20t-25 9.5t-37.5 8t-52.5 4q-67 6 -101.5 41.5t-34.5 85.5v109q0 36 26 62 t62 26q37 0 63 -25.5t26 -62.5v-62q60 -4 137.5 -36t115.5 -64q37 -30 37 -70q0 -35 -27 -61.5t-67 -26.5zM489 -150q-35 0 -61.5 26t-26.5 63v61q-107 5 -181.5 33t-151.5 76q-39 25 -39 75q0 36 25 61t63 25q23 0 45 -14q25 -14 40.5 -23t34 -17.5t27 -13t27 -9t24 -6 t28.5 -3.5t31.5 -2.5t40.5 -2.5l48 -3q52 -3 83.5 -39.5t31.5 -87.5v-110q0 -37 -26 -63t-63 -26z" />
<glyph unicode="%" horiz-adv-x="1579" d="M471 0q-39 3 -63.5 27.5t-24.5 60.5q0 18 6 33l555 1327q21 53 80 53q38 0 63 -25t25 -61q0 -18 -6 -33l-555 -1329q-10 -25 -32 -39t-48 -14zM254 809q-21 0 -49 14q-77 53 -121.5 142.5t-44.5 191.5q0 158 99.5 271.5t238.5 113.5q141 0 240.5 -113t99.5 -272 q0 -103 -45.5 -194t-120.5 -138q-24 -16 -49 -16q-35 0 -61.5 26.5t-26.5 63.5t39 70q30 27 46 46t30 55t14 81q0 93 -48 155t-118 62q-68 0 -116 -62t-48 -155q0 -65 22.5 -103t67.5 -79q20 -17 28.5 -31t8.5 -37q0 -40 -25.5 -66t-60.5 -26zM995 0q-23 0 -45 14 q-79 49 -123.5 141.5t-44.5 194.5q0 156 100 268.5t240 112.5q139 0 238.5 -112.5t99.5 -268.5q0 -103 -45.5 -196t-120.5 -140q-22 -14 -45 -14q-39 0 -64.5 25.5t-25.5 66.5q0 23 8.5 37t28.5 31q46 40 68 79.5t22 100.5q0 94 -47.5 155.5t-116.5 61.5q-70 0 -118 -62 t-48 -155q0 -61 22.5 -100t68.5 -80q38 -32 38 -70q0 -39 -25.5 -64.5t-64.5 -25.5z" />
<glyph unicode="&#x26;" horiz-adv-x="1396" d="M492 1040l24 -28q130 86 156 112q38 38 49.5 53.5t11.5 32.5q0 42 -30.5 70.5t-70.5 39.5t-85 11q-67 0 -111.5 -30t-44.5 -74q0 -17 6.5 -36.5t21.5 -44t23 -37t29 -40.5t21 -29zM1247 621l-168 -263l193 -219q18 -21 18 -51q0 -36 -26 -62t-58 -26q-47 0 -76 29 q-320 381 -655 759l-131 -86q-42 -28 -80.5 -97.5t-38.5 -162.5q0 -72 28 -127t73.5 -84.5t93.5 -44t96 -14.5q57 0 104 19.5t113 60.5q30 18 53 18q39 0 61.5 -25.5t22.5 -66.5q0 -47 -30 -65q-52 -50 -147 -81.5t-191 -31.5q-75 0 -153 25.5t-136 70.5q-168 126 -168 340 q0 106 44 206.5t122 170.5q56 41 151 100q-145 171 -145 314q0 122 96 199t242 77q151 0 251.5 -79t100.5 -197q0 -73 -38.5 -142t-108.5 -118l-131 -86l332 -379q59 95 149 229q20 31 68 31q37 0 62.5 -25.5t25.5 -62.5q0 -26 -19 -53z" />
<glyph unicode="'" horiz-adv-x="378" d="M150 1122q-36 0 -61.5 26t-25.5 62v326q0 35 26.5 61.5t60.5 26.5q39 0 63.5 -25.5t24.5 -62.5v-328q0 -34 -27 -60t-61 -26z" />
<glyph unicode="(" horiz-adv-x="468" d="M250 -201q-28 0 -50.5 16t-31.5 42q-131 365 -131 813q0 450 131 815q7 26 30 41.5t50 15.5q34 0 61 -24.5t27 -67.5q0 -13 -4 -25q-121 -327 -121 -755q0 -427 121 -754q4 -8 4 -22q0 -46 -25.5 -70.5t-60.5 -24.5z" />
<glyph unicode=")" horiz-adv-x="468" d="M137 -201q-36 0 -61 24.5t-25 72.5q0 8 4 20q21 60 34.5 106.5t36.5 145.5t35.5 227.5t12.5 274.5q0 147 -12.5 275.5t-35.5 227.5t-36.5 145t-34.5 107q-4 12 -4 21q0 46 26 71t62 25q27 0 49 -15.5t31 -41.5q131 -365 131 -815q0 -448 -131 -813q-9 -26 -31.5 -42 t-50.5 -16z" />
<glyph unicode="*" horiz-adv-x="804" d="M362 766q-37 0 -62.5 25.5t-25.5 60.5v563q0 36 26 62t62 26q35 0 62 -26.5t27 -61.5v-563q0 -35 -26.5 -60.5t-62.5 -25.5zM610 911q-36 0 -62 26t-26 60q0 36 26 62t62 26q35 0 60.5 -26t25.5 -60q0 -36 -26 -62t-60 -26zM115 911q-36 0 -62 26t-26 60q0 36 26 62 t62 26q35 0 60.5 -26t25.5 -60q0 -36 -26 -62t-60 -26zM115 1184q-36 0 -62 26t-26 60q0 36 26 62t62 26q35 0 60.5 -26t25.5 -60q0 -36 -26 -62t-60 -26zM610 1184q-36 0 -62 26t-26 60q0 36 26 62t62 26q35 0 60.5 -26t25.5 -60q0 -36 -26 -62t-60 -26z" />
<glyph unicode="+" horiz-adv-x="1161" d="M539 0q-35 0 -60.5 25.5t-25.5 60.5v895q0 35 25.5 61.5t60.5 26.5q36 0 62 -26t26 -62v-895q0 -35 -25.5 -60.5t-62.5 -25.5zM295 446h-199q-37 0 -62.5 26t-25.5 63q0 35 25.5 60.5t62.5 25.5h199q37 0 62.5 -25.5t25.5 -60.5q0 -37 -25.5 -63t-62.5 -26zM983 446h-201 q-35 0 -60.5 25.5t-25.5 60.5q0 37 25.5 63t60.5 26h201q35 0 61.5 -26.5t26.5 -62.5q0 -35 -26.5 -60.5t-61.5 -25.5z" />
<glyph unicode="," horiz-adv-x="452" d="M113 -260q-36 0 -62 27t-26 61q0 19 10 39l147 291q12 23 33 36t45 13q35 0 61.5 -27.5t26.5 -60.5q0 -19 -10 -39l-148 -293q-23 -47 -77 -47z" />
<glyph unicode="-" horiz-adv-x="790" d="M559 446h-412q-35 0 -60.5 25.5t-25.5 60.5q0 37 25.5 63t60.5 26h412q37 0 62.5 -26t25.5 -63q0 -35 -25.5 -60.5t-62.5 -25.5z" />
<glyph unicode="." horiz-adv-x="382" d="M152 -4q-43 0 -74 30.5t-31 73.5q0 44 31 75.5t74 31.5t73.5 -31.5t30.5 -75.5q0 -43 -30.5 -73.5t-73.5 -30.5z" />
<glyph unicode="/" horiz-adv-x="864" d="M94 0q-37 0 -61.5 26.5t-24.5 61.5q0 17 6 35l592 1327q22 51 82 51q37 0 61.5 -27t24.5 -61q0 -13 -8 -33l-592 -1329q-10 -24 -32 -37.5t-48 -13.5z" />
<glyph unicode="0" horiz-adv-x="1144" d="M655 0q-35 0 -61.5 26.5t-26.5 63.5q0 25 11.5 40.5t35.5 33.5q228 177 228 563q0 271 -105 449q-92 153 -205 153q-112 0 -206 -153q-105 -174 -105 -455q0 -182 54 -320t176 -237q24 -19 34.5 -35t10.5 -39q0 -40 -26.5 -65t-61.5 -25q-21 0 -41 10q-98 45 -172 160.5 t-111 262.5t-37 304q0 206 64 382t176 280t245 104t244.5 -103t175.5 -280t64 -387q0 -144 -30 -278t-104 -257.5t-184 -187.5q-23 -10 -43 -10z" />
<glyph unicode="1" horiz-adv-x="647" d="M385 0q-35 0 -60.5 25.5t-25.5 60.5v1085l-137 -219q-16 -25 -42 -34.5t-61 2.5q-34 13 -45 49t9 65q225 358 270 418q4 6 10.5 14.5t28.5 22.5t45 14q48 0 72 -24.5t24 -63.5v-1329q0 -35 -25.5 -60.5t-62.5 -25.5z" />
<glyph unicode="2" horiz-adv-x="1077" d="M870 0h-421q-35 0 -61 25.5t-26 60.5q0 36 26 62t61 26h421q37 0 62.5 -25.5t25.5 -62.5q0 -35 -25.5 -60.5t-62.5 -25.5zM139 0q-37 0 -61.5 25t-24.5 63q0 28 17 51l530 709q76 101 102.5 162t26.5 114q0 22 -3 43t-16.5 52.5t-37 54t-68.5 39t-106 16.5 q-54 0 -97.5 -13t-71 -32t-48 -47t-30.5 -52.5t-16 -54.5t-7 -46.5t-1 -34.5v-27q0 -35 -25.5 -60.5t-60.5 -25.5q-37 0 -62.5 25.5t-25.5 60.5v27q0 87 26.5 166t79 144.5t140.5 104.5t201 39q102 0 181.5 -32t126.5 -86.5t71 -121t24 -141.5q0 -87 -36.5 -172.5 t-125.5 -206.5l-532 -708q-24 -35 -70 -35z" />
<glyph unicode="3" horiz-adv-x="1071" d="M752 899q-36 0 -61 26t-25 62q0 21 8 37q24 52 24 104q0 83 -66.5 142t-156.5 59q-87 0 -147 -57.5t-60 -143.5q0 -36 -26 -62t-62 -26q-35 0 -60.5 26.5t-25.5 61.5q0 158 111 266.5t270 108.5q162 0 279.5 -110t117.5 -265q0 -91 -41 -178q-22 -51 -79 -51zM504 0 q-81 0 -163 26t-149 71.5t-109 115t-42 149.5q0 35 26.5 61t59.5 26q31 0 55.5 -20t30.5 -52q11 -60 41.5 -102t73.5 -63t85.5 -29.5t90.5 -8.5q110 0 188 78.5t78 187.5q0 111 -78 190t-188 79q-37 0 -62.5 25.5t-25.5 60.5q0 37 25.5 62.5t62.5 25.5q183 0 312.5 -130 t129.5 -313t-129.5 -311.5t-312.5 -128.5z" />
<glyph unicode="4" horiz-adv-x="999" d="M516 383h-428q-49 0 -76 45q-10 15 -10 43q0 27 10 45l674 942q0 2 4 6q22 43 76 43q35 0 60.5 -25.5t25.5 -62.5v-1333q0 -35 -25.5 -60.5t-60.5 -25.5q-37 0 -62.5 25.5t-25.5 60.5v1069l-436 -596h274q35 0 60.5 -25.5t25.5 -62.5t-25.5 -62.5t-60.5 -25.5z" />
<glyph unicode="5" horiz-adv-x="1054" d="M260 793q-36 3 -61 28t-25 58q0 2 6 36q29 183 82 515q4 32 28.5 52.5t57.5 20.5h486q35 0 60.5 -25.5t25.5 -60.5q0 -37 -25.5 -62.5t-60.5 -25.5h-410l-76 -463q-6 -32 -31 -52.5t-57 -20.5zM463 0q-126 2 -234.5 51.5t-177.5 143.5q-18 24 -18 53q0 35 26.5 60.5 t61.5 25.5q43 0 67 -35q46 -60 118 -92.5t157 -32.5q127 0 208 92.5t81 233.5q0 117 -65.5 207t-174.5 90q-35 0 -60.5 24.5t-25.5 59.5q0 38 26 64t62 26q91 0 170 -41t131 -108t81.5 -151.5t29.5 -172.5q0 -106 -37.5 -202t-108.5 -167q-132 -129 -317 -129z" />
<glyph unicode="6" horiz-adv-x="1081" d="M537 170q132 0 226.5 93t94.5 239q0 264 -233 295q-111 15 -111 82q0 81 121 77q61 -2 127.5 -30t129 -79.5t102.5 -138.5t40 -194q0 -120 -44 -220t-115.5 -163t-159 -97t-178.5 -34q-224 0 -360 144t-136 376q0 125 29 243.5t76 214.5t116 189t139 164t154 142 q39 32 82 32q42 0 64 -22.5t22 -57.5q0 -41 -35 -69q-48 -40 -83.5 -72.5t-88 -85.5t-90.5 -102t-79.5 -116t-68 -133t-44 -148t-17.5 -167q0 -175 85 -268.5t235 -93.5z" />
<glyph unicode="7" horiz-adv-x="1050" d="M281 0q-37 0 -62.5 24.5t-25.5 61.5q0 21 8 37l479 1083q10 24 32.5 39t47.5 15q36 0 61 -27t25 -62q0 -19 -6 -34l-480 -1086q-22 -51 -79 -51zM868 1331h-757q-35 0 -60.5 25.5t-25.5 60.5q0 37 25.5 62.5t60.5 25.5h757q37 0 62.5 -25.5t25.5 -62.5q0 -35 -25.5 -60.5 t-62.5 -25.5z" />
<glyph unicode="8" horiz-adv-x="1058" d="M612 0q-36 0 -62 26t-26 66q0 28 13.5 44t42.5 34q34 20 51.5 32t45 37.5t41.5 50.5t25 64.5t11 87.5q0 199 -174 301q-17 9 -27 16t-19.5 23.5t-9.5 38.5q0 28 12 45t39 37q119 86 119 209q0 94 -60 155.5t-147 61.5t-146.5 -61t-59.5 -154q0 -130 120 -211 q24 -15 37 -32.5t13 -47.5q0 -32 -14 -48.5t-42 -31.5q-174 -102 -174 -303q0 -57 13 -100.5t42 -75.5t52.5 -50t66.5 -44q29 -18 42.5 -34t13.5 -44q0 -40 -25.5 -66t-63.5 -26q-15 0 -30 6q-121 43 -203 168t-82 272q0 107 46 212.5t122 172.5q-51 57 -80 134t-29 155 q0 158 111.5 270.5t269.5 112.5t270.5 -112.5t112.5 -270.5q0 -77 -29 -154.5t-79 -134.5q77 -70 122.5 -175t45.5 -210q0 -145 -81.5 -270.5t-205.5 -169.5q-15 -6 -31 -6z" />
<glyph unicode="9" horiz-adv-x="1081" d="M528 1331q-82 0 -155 -39.5t-120.5 -116.5t-47.5 -174q0 -263 235 -294q111 -15 111 -82q0 -82 -121 -78q-61 2 -127.5 30t-129 79.5t-102.5 138.5t-40 194q0 120 44 220t115.5 163t159 97t178.5 34q224 0 360 -144t136 -376q0 -125 -29 -243.5t-76 -214t-116 -188.5 t-139 -164t-154 -142q-39 -33 -82 -33q-42 0 -64 22.5t-22 57.5q0 41 35 69q48 40 83.5 72.5t88 85.5t90.5 102t79.5 116t68 133t44 148t17.5 167q0 170 -91.5 265t-228.5 95z" />
<glyph unicode=":" horiz-adv-x="399" d="M160 -4q-43 0 -74 30.5t-31 73.5q0 44 31 75.5t74 31.5t73.5 -31.5t30.5 -75.5q0 -43 -30.5 -73.5t-73.5 -30.5zM160 698q-43 0 -74 31t-31 74t31 73.5t74 30.5t73.5 -30.5t30.5 -73.5t-30.5 -74t-73.5 -31z" />
<glyph unicode=";" horiz-adv-x="460" d="M244 698q-43 0 -74 31t-31 74t31 73.5t74 30.5t73.5 -30.5t30.5 -73.5t-30.5 -74t-73.5 -31zM113 -260q-36 0 -62 27t-26 61q0 19 10 39l147 291q12 23 33 36t45 13q35 0 61.5 -27.5t26.5 -60.5q0 -19 -10 -39l-148 -293q-23 -47 -77 -47z" />
<glyph unicode="&#x3c;" horiz-adv-x="1200" d="M967 0q-23 0 -39 8l-873 449q-49 25 -49 78q0 55 49 77l873 449q20 10 41 10q34 0 60 -26t26 -62q0 -54 -47 -78l-723 -370l723 -371q47 -24 47 -76q0 -37 -25.5 -62.5t-62.5 -25.5z" />
<glyph unicode="=" horiz-adv-x="1277" d="M1042 659h-890q-35 0 -60.5 26t-25.5 63t25.5 62.5t60.5 25.5h890q37 0 62.5 -25.5t25.5 -62.5t-25.5 -63t-62.5 -26zM1042 229h-890q-35 0 -60.5 25.5t-25.5 62.5q0 35 25.5 60.5t60.5 25.5h890q37 0 62.5 -25.5t25.5 -60.5q0 -37 -25.5 -62.5t-62.5 -25.5z" />
<glyph unicode="&#x3e;" horiz-adv-x="1200" d="M152 0q-37 0 -63 25.5t-26 62.5q0 51 48 76l723 371l-723 370q-48 25 -48 78q0 36 26.5 62t60.5 26q20 0 40 -10l873 -449q49 -22 49 -77q0 -53 -49 -78l-873 -449q-16 -8 -38 -8z" />
<glyph unicode="?" horiz-adv-x="970" d="M442 -4q-43 0 -73.5 30.5t-30.5 73.5q0 44 30.5 75.5t73.5 31.5t74 -31.5t31 -75.5q0 -43 -31 -73.5t-74 -30.5zM692 1077q0 103 -73.5 176.5t-176.5 73.5q-27 0 -66 -12.5t-81.5 -35.5t-72 -65.5t-29.5 -93.5q0 -36 -25.5 -62t-61.5 -26q-37 0 -62.5 25.5t-25.5 62.5 q0 86 29.5 155t74 110.5t103 69t112 38t105.5 10.5q178 0 305 -126.5t127 -305.5q0 -97 -27.5 -177.5t-76 -136t-109 -91t-131.5 -52.5v-178q0 -37 -25.5 -62.5t-62.5 -25.5q-36 0 -62 26t-26 62v264q0 35 25.5 60.5t62.5 25.5q104 0 177 76.5t73 214.5z" />
<glyph unicode="@" horiz-adv-x="1720" d="M809 0q-142 0 -283 48t-247 142q-118 104 -175 247.5t-57 303.5q0 225 104 401.5t288.5 273.5t416.5 97q318 0 516 -182q110 -101 166.5 -243t56.5 -312q0 -204 -88 -297q-37 -38 -91 -63t-116 -25q-100 0 -174 58q-86 68 -86 174v129q0 110 -69.5 176.5t-182.5 66.5 q-117 0 -190.5 -71t-73.5 -185q0 -117 76.5 -197.5t190.5 -80.5q38 0 88 16q18 6 30 6q36 0 62 -25t26 -63q0 -55 -57 -80q-64 -28 -158 -28q-117 0 -217 63t-157.5 168.5t-57.5 226.5q0 182 127 303t314 121q140 0 249 -73q5 31 29.5 52t56.5 21q37 0 62.5 -25.5 t25.5 -60.5v-460q0 -25 26.5 -41.5t59.5 -16.5q47 0 78 33q41 44 41 162q0 139 -41 255.5t-121 188.5q-72 66 -179 100.5t-230 34.5q-182 0 -324.5 -74t-222.5 -211t-80 -317q0 -116 35.5 -212t94.5 -160t138.5 -108t165 -63.5t176.5 -19.5q71 0 134.5 14.5t99 30.5t94.5 47 q23 13 45 13q36 0 62 -26.5t26 -62.5q0 -42 -43 -75q-58 -44 -185 -79.5t-255 -35.5z" />
<glyph unicode="A" horiz-adv-x="1370" d="M113 0q-36 0 -61 26t-25 60q0 20 6 35l530 1327q9 25 31.5 40t48.5 15t49 -15t33 -40l530 -1329q7 -18 7 -31q0 -35 -25.5 -61.5t-62.5 -26.5q-27 0 -49.5 14.5t-32.5 40.5l-449 1125l-268 -682h405q35 0 60.5 -25.5t25.5 -60.5q0 -37 -25.5 -62.5t-60.5 -25.5h-475 l-110 -271q-10 -24 -32.5 -38.5t-49.5 -14.5z" />
<glyph unicode="B" horiz-adv-x="1118" d="M993 446q0 -110 -42 -197t-114 -140.5t-164 -81t-198 -27.5h-76q-35 0 -60.5 25.5t-25.5 62.5q0 35 25.5 60.5t60.5 25.5h76q36 0 75 5t89 21.5t87.5 42.5t64 73.5t26.5 109.5q0 71 -34 127.5t-87 88t-110 47.5t-111 16h-76q-35 0 -60.5 25.5t-25.5 60.5q0 37 25.5 62.5 t60.5 25.5h93q88 6 148 70.5t60 152.5q0 94 -65.5 159.5t-159.5 65.5h-233v-1239q0 -37 -25.5 -62.5t-62.5 -25.5q-35 0 -60.5 25.5t-25.5 62.5v1327q0 37 25.5 62.5t60.5 25.5h321q166 0 282.5 -117.5t116.5 -283.5q0 -174 -126 -291q110 -53 177.5 -152t67.5 -213z" />
<glyph unicode="C" horiz-adv-x="1296" d="M688 0q-114 0 -227 47.5t-201 134.5q-215 211 -215 570q0 358 215 569q89 86 202 134t224 48q122 0 249 -52t177 -110q25 -28 25 -59q0 -39 -26.5 -64.5t-63.5 -25.5q-30 0 -60 27q-50 43 -132.5 75.5t-162.5 32.5q-59 0 -121 -18.5t-125.5 -63t-113 -108.5t-80.5 -164.5 t-31 -222.5q0 -121 31 -221t80 -164.5t113.5 -108.5t128 -63t126.5 -19q81 0 171.5 29.5t158.5 68.5q24 15 45 15q39 0 64.5 -26.5t25.5 -63.5q0 -43 -37 -70q-61 -46 -195 -86.5t-245 -40.5z" />
<glyph unicode="D" horiz-adv-x="1296" d="M154 -6q-35 0 -60.5 25.5t-25.5 62.5v1333q0 37 25.5 62.5t60.5 25.5h370q118 0 231 -47.5t201 -134.5q215 -211 215 -569q0 -359 -215 -570q-185 -182 -432 -182h-125q-35 0 -60.5 25.5t-25.5 62.5q0 35 25.5 60.5t60.5 25.5h125q60 0 122.5 19t126 63t113 108.5 t80.5 165t31 222.5t-31 222.5t-80.5 164.5t-113 108.5t-126 63t-122.5 18.5h-282v-1247q0 -37 -25.5 -62.5t-62.5 -25.5z" />
<glyph unicode="E" horiz-adv-x="882" d="M694 0h-538q-37 0 -62.5 26.5t-25.5 61.5v1327q0 37 25.5 62.5t62.5 25.5h538q35 0 60.5 -25.5t25.5 -62.5q0 -35 -25.5 -60.5t-60.5 -25.5h-452v-1155h452q35 0 60.5 -25.5t25.5 -60.5q0 -37 -25.5 -62.5t-60.5 -25.5zM659 659h-297q-37 0 -62.5 26t-25.5 63t25.5 62.5 t62.5 25.5h297q37 0 63 -25.5t26 -62.5t-26 -63t-63 -26z" />
<glyph unicode="F" horiz-adv-x="868" d="M156 0q-37 0 -62.5 25.5t-25.5 62.5v1327q0 37 25.5 62.5t62.5 25.5h538q38 0 63 -26t25 -62q0 -35 -25.5 -60.5t-62.5 -25.5h-450v-1241q0 -36 -26 -62t-62 -26zM659 659h-297q-37 0 -62.5 26t-25.5 63t25.5 62.5t62.5 25.5h297q37 0 63 -25.5t26 -62.5t-26 -63t-63 -26 z" />
<glyph unicode="G" horiz-adv-x="1454" d="M256 176q-217 217 -217 580q0 106 20 200t54.5 163.5t69 118t75.5 87.5q189 186 455 186q274 0 497 -176q35 -25 35 -69q0 -36 -27.5 -62t-68.5 -26q-18 0 -47 20q-75 49 -116 72t-111.5 44t-147.5 21q-209 0 -340 -131q-172 -169 -172 -456q0 -123 31.5 -224t82 -165 t117 -108t131.5 -62.5t130 -18.5q117 0 231 74q21 14 47 14q41 0 65.5 -24t24.5 -64q0 -29 -9.5 -44t-31.5 -32q-57 -45 -154 -73.5t-194 -28.5q-114 0 -228.5 48.5t-201.5 135.5zM1149 80v579h-258q-35 0 -61.5 27t-26.5 62q0 37 26.5 63.5t61.5 26.5h348q39 0 63.5 -26 t24.5 -64v-668q0 -40 -24 -64t-64 -24q-38 0 -64 24.5t-26 63.5z" />
<glyph unicode="H" horiz-adv-x="1214" d="M733 668h-489v-580q0 -37 -25.5 -62.5t-62.5 -25.5q-36 0 -62 26t-26 62v1333q0 36 26 62t62 26q37 0 62.5 -25.5t25.5 -62.5v-579h489q37 0 62.5 -25.5t25.5 -62.5q0 -35 -25.5 -60.5t-62.5 -25.5zM979 0q-37 0 -62.5 25.5t-25.5 62.5v1333q0 37 25.5 62.5t62.5 25.5 q36 0 62 -26t26 -62v-1333q0 -36 -26 -62t-62 -26z" />
<glyph unicode="I" horiz-adv-x="385" d="M154 0q-35 0 -60.5 25.5t-25.5 62.5v1333q0 37 25.5 62.5t60.5 25.5q37 0 62.5 -25.5t25.5 -62.5v-1333q0 -37 -25.5 -62.5t-62.5 -25.5z" />
<glyph unicode="J" horiz-adv-x="821" d="M322 -10q-82 0 -155.5 30t-121.5 82q-39 39 -39 68q0 38 24.5 64t61.5 26q35 0 60 -22q4 -4 21 -19t23.5 -20t23 -16t29.5 -15t33.5 -8t43.5 -4q88 0 132 49t44 127v1089q0 37 25.5 62.5t62.5 25.5q35 0 60.5 -25.5t25.5 -62.5v-1110q0 -59 -19.5 -114t-59.5 -102.5 t-111 -76t-164 -28.5z" />
<glyph unicode="K" horiz-adv-x="1159" d="M156 0q-36 0 -62 26t-26 62v1333q0 36 26 62t62 26q37 0 62.5 -25.5t25.5 -62.5v-1333q0 -37 -25.5 -62.5t-62.5 -25.5zM934 0q-40 0 -70 33l-532 667q-19 25 -19 54q0 26 17 53l491 666q24 34 72 34q35 0 60.5 -25.5t25.5 -60.5q0 -30 -16 -51l-453 -614l491 -615 q21 -28 21 -53q0 -34 -26.5 -61t-61.5 -27z" />
<glyph unicode="L" horiz-adv-x="942" d="M772 0h-616q-37 0 -62.5 25.5t-25.5 62.5v1333q0 37 25.5 62.5t62.5 25.5q35 0 60.5 -25.5t25.5 -62.5v-1247h530q35 0 60.5 -25.5t25.5 -60.5q0 -37 -25.5 -62.5t-60.5 -25.5z" />
<glyph unicode="M" horiz-adv-x="1802" d="M1581 -8q-30 0 -54 19.5t-30 49.5l-205 1029l-350 -1022q-19 -76 -92 -76q-34 0 -57.5 24.5t-34.5 57.5l-330 1013l-205 -1026q-6 -30 -30.5 -49.5t-55.5 -19.5q-36 0 -62 25t-26 65q0 7 1 10t1 4l271 1346q6 30 30 48.5t54 18.5q64 0 83 -55l369 -1102l373 1098 q9 26 32.5 42.5t51.5 16.5q30 0 54 -21t30 -50q272 -1345 272 -1352q0 -38 -27 -66t-63 -28z" />
<glyph unicode="N" horiz-adv-x="1363" d="M1128 -6q-46 0 -88 57l-798 1102v-1071q0 -37 -25.5 -62.5t-62.5 -25.5q-35 0 -60.5 25.5t-25.5 62.5v1339q0 36 26 61t62 25q45 0 69 -34l817 -1125v1073q0 37 25.5 62.5t60.5 25.5q37 0 63 -25.5t26 -62.5v-1339q0 -44 -25 -66t-64 -22z" />
<glyph unicode="O" horiz-adv-x="1447" d="M803 -10q-30 0 -57 25.5t-27 66.5q0 21 9 36t20 22t34 18q357 185 357 561q0 174 -60.5 316.5t-164.5 223t-230 80.5t-230 -80.5t-164.5 -223t-60.5 -316.5q0 -374 355 -561q25 -13 35 -19.5t19 -21t9 -35.5q0 -45 -27.5 -68.5t-60.5 -23.5q-10 0 -22 4 q-150 46 -263.5 163.5t-170 268t-56.5 311.5q0 116 29 229.5t85 212t132 173.5t177.5 118t213.5 43t213.5 -43t177 -117.5t131.5 -172t84.5 -210.5t28.5 -229q0 -163 -59.5 -319t-173 -273t-257.5 -155q-12 -4 -26 -4z" />
<glyph unicode="P" horiz-adv-x="1105" d="M156 -8q-37 0 -62.5 25.5t-25.5 62.5v1335q0 36 26 62t62 26h362q97 0 184.5 -37.5t151.5 -101.5t101.5 -152.5t37.5 -185.5q0 -196 -139.5 -335.5t-335.5 -139.5h-117q-37 0 -62.5 25.5t-25.5 62.5q0 35 25.5 60.5t62.5 25.5h117q124 0 212.5 88.5t88.5 212.5 q0 126 -88 214.5t-213 88.5h-274v-1249q0 -37 -25.5 -62.5t-62.5 -25.5z" />
<glyph unicode="Q" horiz-adv-x="1454" d="M1116 20l-256 338q-22 29 -16 64.5t35 58.5q30 23 65 17.5t57 -35.5l48 -64q27 37 44.5 71.5t34.5 109t17 168.5q0 159 -62 293t-168 211t-231 77q-126 0 -231 -77.5t-165.5 -210.5t-60.5 -289t60 -290.5t165.5 -214t229.5 -79.5q65 0 129 22q17 7 29 7q35 0 61.5 -26 t26.5 -65q0 -54 -58 -79q-78 -33 -194 -33q-122 0 -240 61t-209 170q-87 105 -133.5 241t-46.5 286q0 87 19.5 176t56 172.5t92.5 156.5t124.5 128t157 86.5t185.5 31.5q136 0 257 -62t204 -164t131.5 -236t48.5 -275q0 -143 -42 -273.5t-132 -226.5l108 -139 q22 -29 16.5 -65t-34.5 -58t-64.5 -17.5t-58.5 33.5z" />
<glyph unicode="R" horiz-adv-x="1081" d="M946 1081q0 -161 -115.5 -270t-281.5 -125l381 -549q16 -22 16 -49q0 -36 -26 -62t-62 -26q-46 0 -70 37l-456 651q-23 26 -23 60q0 37 25.5 62.5t60.5 25.5h88q107 0 198 73.5t91 171.5q0 101 -72.5 173.5t-175.5 72.5h-282v-1239q0 -37 -25.5 -62.5t-62.5 -25.5 q-35 0 -60.5 25.5t-25.5 62.5v1327q0 35 25.5 61.5t60.5 26.5h370q174 0 298 -124t124 -298z" />
<glyph unicode="S" horiz-adv-x="1091" d="M449 -10q-78 0 -154.5 22.5t-115 43.5t-91.5 55q-39 25 -39 75q0 36 26 60t62 24q24 0 45 -12l12 -8q12 -9 22.5 -16t30 -18t40.5 -19t46.5 -16t56.5 -12.5t63 -4.5q60 0 118 15.5t108.5 46.5t82 84.5t31.5 121.5q0 30 -6.5 56.5t-16.5 48t-27.5 41.5t-33.5 34t-41 29 t-43.5 24t-47 20.5t-45.5 17.5t-46 15.5t-42 14.5q-60 21 -109.5 45.5t-99.5 60.5t-84 77.5t-55.5 98.5t-21.5 122q0 114 61.5 200t159.5 129t213 43q95 0 191.5 -33t152.5 -81q37 -32 37 -70q0 -37 -27.5 -62.5t-62.5 -25.5q-23 0 -49 16q-2 1 -18.5 11.5t-20 13 t-19.5 11.5t-23.5 12t-23 10t-27.5 9.5t-28.5 6t-33.5 5t-36 1.5q-112 0 -191 -50t-79 -144q0 -18 3.5 -35t21 -48.5t47.5 -58.5t91 -58.5t144 -55.5l45.5 -14t65.5 -25.5t80.5 -40.5t78.5 -58.5t72 -79.5t48 -103t20 -130q0 -106 -44.5 -192t-118 -139.5t-165 -82 t-190.5 -28.5z" />
<glyph unicode="T" horiz-adv-x="1028" d="M846 1327h-746q-37 0 -62.5 25.5t-25.5 62.5t25.5 62.5t62.5 25.5h746q37 0 62.5 -25.5t25.5 -62.5t-25.5 -62.5t-62.5 -25.5zM473 0q-37 0 -62.5 25.5t-25.5 62.5v1081q0 37 25.5 62.5t62.5 25.5q35 0 60.5 -25.5t25.5 -62.5v-1081q0 -37 -25.5 -62.5t-60.5 -25.5z" />
<glyph unicode="U" horiz-adv-x="1335" d="M510 0q-17 0 -29 4q-99 26 -170.5 67.5t-119.5 98t-77 135t-41 169.5t-12 210v741q0 37 25.5 62.5t60.5 25.5q37 0 63 -25.5t26 -62.5v-741q0 -123 14 -208.5t33 -135.5t63 -84.5t78 -49t104 -36.5q32 -10 48 -32.5t16 -49.5q0 -37 -25 -62.5t-57 -25.5zM745 0 q-32 0 -56.5 25.5t-24.5 62.5q0 62 63 82q71 22 105 36.5t78.5 49t63 84.5t32.5 135.5t14 208.5v741q0 37 25.5 62.5t62.5 25.5q35 0 60.5 -25.5t25.5 -62.5v-741q0 -119 -12 -210t-41 -169.5t-77 -135t-119.5 -98t-170.5 -67.5q-12 -4 -29 -4z" />
<glyph unicode="V" horiz-adv-x="1280" d="M598 0q-64 3 -82 57l-483 1334q-6 15 -6 30q0 37 27.5 62.5t62.5 25.5q27 0 49 -15.5t31 -41.5l401 -1114l403 1114q9 26 32 41.5t50 15.5q36 0 62 -26t26 -62q0 -15 -6 -30l-485 -1334q-9 -26 -31.5 -41.5t-50.5 -15.5z" />
<glyph unicode="W" horiz-adv-x="1800" d="M1313 -8q-30 0 -52.5 16t-31.5 43l-371 1098l-371 -1098q-9 -26 -31 -42.5t-50 -16.5q-30 0 -55.5 19.5t-31.5 49.5l-268 1344q0 1 -1 4t-1 10q0 39 25 65.5t61 26.5q31 0 55.5 -19.5t30.5 -51.5l207 -1032l348 1040q9 26 32 41.5t52 15.5q27 0 50 -16t32 -43l348 -1036 l207 1030q6 32 30.5 51.5t55.5 19.5q36 0 61 -26.5t25 -65.5q0 -7 -1 -10t-1 -4l-270 -1344q-6 -28 -28.5 -48t-55.5 -21z" />
<glyph unicode="X" horiz-adv-x="1386" d="M143 0q-36 0 -62 26t-26 62q0 25 17 49l475 668l-397 559q-17 23 -17 51q0 34 25.5 61t60.5 27q45 0 72 -37l944 -1329q16 -22 16 -49q0 -34 -26 -61t-62 -27q-45 0 -69 37l-441 618l-440 -618q-24 -37 -70 -37zM803 934q-35 0 -60.5 27t-25.5 61q0 27 16 49l279 395 q27 37 71 37q35 0 61.5 -27.5t26.5 -60.5q0 -25 -16 -51l-281 -393q-24 -37 -71 -37z" />
<glyph unicode="Y" horiz-adv-x="1157" d="M528 -4q-35 0 -60.5 25.5t-25.5 62.5v639l-405 651q-12 21 -12 45q0 37 25.5 63.5t62.5 26.5q47 0 71 -41l418 -673q14 -20 14 -47v-664q0 -37 -25.5 -62.5t-62.5 -25.5zM684 879q-36 0 -62 26t-26 62q0 25 14 45l281 456q24 41 74 41q36 0 62 -26t26 -64q0 -23 -15 -45 l-280 -454q-24 -41 -74 -41z" />
<glyph unicode="Z" horiz-adv-x="1216" d="M983 1327h-823q-36 0 -62 26t-26 62t26 62t62 26h823q37 0 62.5 -25.5t25.5 -62.5t-25.5 -62.5t-62.5 -25.5zM1018 0h-893q-35 0 -60.5 25.5t-25.5 60.5q0 29 14 49l705 1082q24 40 73 40q35 0 61 -26.5t26 -61.5q0 -26 -15 -47l-616 -948h731q37 0 62.5 -25.5 t25.5 -60.5q0 -37 -25.5 -62.5t-62.5 -25.5z" />
<glyph unicode="[" horiz-adv-x="507" d="M305 -168h-149q-37 0 -62.5 25.5t-25.5 62.5v1495q0 36 26 62t62 26h149q36 0 62 -26t26 -62q0 -37 -25.5 -62.5t-62.5 -25.5h-61v-1319h61q37 0 62.5 -25.5t25.5 -62.5t-25.5 -62.5t-62.5 -25.5z" />
<glyph unicode="\" horiz-adv-x="864" d="M688 0q-26 0 -48 13.5t-32 37.5l-592 1329q-8 20 -8 33q0 34 24.5 61t61.5 27q60 0 82 -51l592 -1327q6 -18 6 -35q0 -35 -24.5 -61.5t-61.5 -26.5z" />
<glyph unicode="]" horiz-adv-x="503" d="M121 -168q-37 0 -62.5 25.5t-25.5 62.5t25.5 62.5t62.5 25.5h61v1319h-61q-37 0 -62.5 25.5t-25.5 62.5q0 36 26 62t62 26h149q36 0 62 -26t26 -62v-1495q0 -37 -25.5 -62.5t-62.5 -25.5h-149z" />
<glyph unicode="^" horiz-adv-x="1177" d="M979 606q-22 0 -43 11.5t-33 31.5l-352 596l-361 -596q-25 -43 -75 -43q-36 0 -61 26t-25 62q0 24 12 45l436 721q25 43 74 43q51 0 76 -43l428 -721q12 -21 12 -45q0 -35 -26.5 -61.5t-61.5 -26.5z" />
<glyph unicode="_" horiz-adv-x="1382" d="M1151 -293h-1001q-36 0 -61.5 25.5t-25.5 62.5q0 35 26 60.5t61 25.5h1001q35 0 60.5 -25.5t25.5 -60.5q0 -37 -25.5 -62.5t-60.5 -25.5z" />
<glyph unicode="`" horiz-adv-x="391" d="M186 1327q-54 0 -77 47l-62 123q-10 20 -10 39q0 33 26.5 60.5t61.5 27.5q24 0 45 -13t33 -36l61 -121q10 -20 10 -39q0 -35 -26.5 -61.5t-61.5 -26.5z" />
<glyph unicode="a" d="M918 1135q35 0 60.5 -25.5t25.5 -60.5v-963q0 -35 -25.5 -60.5t-60.5 -25.5q-37 0 -63 25.5t-26 60.5v498q0 168 -81.5 272.5t-215.5 104.5q-137 0 -224 -105.5t-87 -271.5q0 -172 91 -291t223 -119q42 0 98 23q18 6 37 6q36 0 62 -25t26 -63q0 -34 -24 -58t-61.5 -35.5 t-71.5 -16.5t-66 -5q-134 0 -246.5 78t-177 211.5t-64.5 290.5q0 150 58.5 276t170.5 202.5t256 76.5q174 0 297 -111v25q0 35 26 60.5t63 25.5z" />
<glyph unicode="b" horiz-adv-x="1122" d="M885 979q139 -155 139 -393q0 -161 -64 -296t-174 -212.5t-239 -77.5q-112 0 -182 37q-50 26 -50 78q0 39 25.5 63.5t62.5 24.5q20 0 35 -6q54 -23 99 -23q132 0 222.5 119t90.5 291q0 166 -87 271.5t-224 105.5q-134 0 -215.5 -104.5t-81.5 -272.5v-498 q0 -35 -25.5 -60.5t-60.5 -25.5q-37 0 -62.5 25.5t-25.5 60.5v1452q0 35 25.5 60.5t62.5 25.5q35 0 60.5 -25.5t25.5 -60.5v-514q126 111 295 111q101 0 190.5 -40.5t157.5 -115.5z" />
<glyph unicode="c" horiz-adv-x="956" d="M532 0q-131 0 -244 76.5t-180 210.5t-67 293q0 152 61.5 278t177 201.5t263.5 75.5q129 0 231 -60q43 -21 43 -76q0 -37 -25 -61.5t-63 -24.5q-24 0 -43 11q-69 37 -141 37q-147 0 -238.5 -106t-91.5 -273q0 -172 95.5 -290t234.5 -118q66 0 137 41q24 14 47 14 q37 0 62.5 -25.5t25.5 -62.5q0 -42 -39 -71q-37 -29 -106.5 -49.5t-139.5 -20.5z" />
<glyph unicode="d" horiz-adv-x="1120" d="M887 1624q35 0 60.5 -25.5t25.5 -60.5v-1452q0 -35 -25.5 -60.5t-60.5 -25.5q-37 0 -62.5 25.5t-25.5 60.5v498q0 168 -81.5 272.5t-215.5 104.5q-137 0 -224.5 -105.5t-87.5 -271.5q0 -172 91 -291t223 -119q42 0 98 23q18 6 37 6q36 0 62 -25t26 -61q0 -52 -51 -80 q-29 -16 -79 -26.5t-99 -10.5q-129 0 -240 76t-176.5 209.5t-65.5 292.5q0 113 34.5 214t96.5 177.5t154 121t201 44.5q174 0 297 -111v514q0 35 25.5 60.5t62.5 25.5z" />
<glyph unicode="e" horiz-adv-x="1148" d="M526 0q-141 0 -252 77.5t-169 204.5t-58 277q0 156 65 288.5t177.5 210t247.5 77.5q87 0 165.5 -34.5t135.5 -90.5t99.5 -126t63.5 -143t21 -139q0 -69 -22.5 -96t-63.5 -27h-553q-36 0 -62 26t-26 62q0 37 25.5 62.5t62.5 25.5h455q-27 134 -110.5 220t-192.5 86 q-132 0 -223 -119.5t-91 -292.5q0 -166 88 -270.5t236 -104.5q152 0 303 113q28 22 55 22q41 0 66.5 -24.5t25.5 -63.5q0 -31 -26 -61q-62 -65 -194.5 -112.5t-248.5 -47.5z" />
<glyph unicode="f" horiz-adv-x="731" d="M516 1135q35 0 60.5 -25.5t25.5 -60.5q0 -37 -25.5 -62.5t-60.5 -25.5h-139q-51 0 -86 -34.5t-35 -84.5v-754q0 -37 -25.5 -62.5t-62.5 -25.5q-35 0 -60.5 25.5t-25.5 62.5v754q0 122 86 207.5t209 85.5h139zM516 1624q35 0 60.5 -25.5t25.5 -60.5q0 -37 -25.5 -62.5 t-60.5 -25.5h-139q-51 0 -86 -34.5t-35 -84.5v-82q0 -37 -25.5 -62.5t-62.5 -25.5q-35 0 -60.5 25.5t-25.5 62.5v82q0 122 86 207.5t209 85.5h139z" />
<glyph unicode="g" horiz-adv-x="1148" d="M920 1135q37 0 62.5 -25.5t25.5 -60.5v-936q0 -87 -19.5 -168t-59 -151t-95.5 -121.5t-133.5 -81t-168.5 -29.5q-112 0 -237 38.5t-184 98.5q-29 29 -29 63q0 38 25.5 64.5t60.5 26.5q27 0 57 -23q129 -94 291 -94q154 0 236 102t82 275v438q0 174 -84.5 292t-212.5 118 q-130 0 -221 -119.5t-91 -290.5q0 -165 88 -271t228 -106q41 0 100 19q15 6 33 6q36 0 61 -25t25 -61q0 -56 -55 -82q-66 -31 -175 -31q-141 0 -252.5 77.5t-170 204t-58.5 275.5q0 156 65 289t178 211t247 78q169 0 295 -123v37q0 35 25.5 60.5t60.5 25.5z" />
<glyph unicode="h" horiz-adv-x="1038" d="M154 0q-35 0 -60.5 25.5t-25.5 60.5v1452q0 35 25.5 60.5t60.5 25.5q37 0 62.5 -25.5t25.5 -60.5v-1452q0 -35 -25.5 -60.5t-62.5 -25.5zM846 0q-35 0 -60.5 25.5t-25.5 60.5v633q0 96 -60 170t-161 74q-40 0 -105 -21q-15 -6 -33 -6q-37 0 -61.5 25.5t-24.5 62.5 q0 54 56 80q65 33 174 33q110 0 200.5 -60t139.5 -155.5t49 -202.5v-633q0 -35 -25.5 -60.5t-62.5 -25.5z" />
<glyph unicode="i" horiz-adv-x="391" d="M154 0q-35 0 -60.5 25.5t-25.5 60.5v963q0 35 25.5 60.5t60.5 25.5q37 0 62.5 -25.5t25.5 -60.5v-963q0 -35 -25.5 -60.5t-62.5 -25.5zM154 1280q-46 0 -79.5 34t-33.5 81q0 46 33.5 79t79.5 33q47 0 80.5 -33t33.5 -79q0 -47 -33.5 -81t-80.5 -34z" />
<glyph unicode="j" horiz-adv-x="391" d="M-98 -438q-37 0 -62.5 25.5t-25.5 60.5q0 37 25.5 62.5t62.5 25.5q85 0 125.5 33.5t40.5 103.5v1176q0 35 25.5 60.5t60.5 25.5q37 0 62.5 -25.5t25.5 -60.5v-1176q0 -47 -11 -90.5t-37 -84.5t-64 -70.5t-96.5 -47.5t-131.5 -18zM154 1280q-46 0 -79.5 34t-33.5 81 q0 46 33.5 79t79.5 33q47 0 80.5 -33t33.5 -79q0 -47 -33.5 -81t-80.5 -34z" />
<glyph unicode="k" horiz-adv-x="985" d="M156 0q-37 0 -62.5 25.5t-25.5 60.5v1452q0 35 25.5 60.5t62.5 25.5q35 0 61.5 -25.5t26.5 -60.5v-1452q0 -35 -26.5 -60.5t-61.5 -25.5zM807 0q-45 0 -72 35l-403 559q-17 24 -17 51q0 31 21 55l342 404q25 31 65 31q35 0 61.5 -25.5t26.5 -60.5t-20 -58l-297 -350 l363 -504q16 -21 16 -51q0 -35 -25.5 -60.5t-60.5 -25.5z" />
<glyph unicode="l" horiz-adv-x="385" d="M156 0q-37 0 -62.5 25.5t-25.5 60.5v1452q0 35 25.5 60.5t62.5 25.5q35 0 60.5 -25.5t25.5 -60.5v-1452q0 -35 -25.5 -60.5t-60.5 -25.5z" />
<glyph unicode="m" horiz-adv-x="1693" d="M154 0q-35 0 -60.5 25.5t-25.5 60.5v963q0 35 25.5 60.5t60.5 25.5q37 0 62.5 -25.5t25.5 -60.5v-963q0 -35 -25.5 -60.5t-62.5 -25.5zM807 0q-35 0 -60.5 25.5t-25.5 60.5v631q0 96 -55 170t-148 74q-37 0 -86 -17q-15 -6 -31 -6q-36 0 -61 26.5t-25 63.5 q0 32 20.5 54.5t54 33t64 15t60.5 4.5q174 0 283 -134q98 -121 98 -284v-631q0 -35 -25.5 -60.5t-62.5 -25.5zM1460 0q-35 0 -61.5 25.5t-26.5 60.5v631q0 97 -55 170.5t-150 73.5q-49 0 -131 -41q-23 -13 -43 -13q-37 0 -62.5 26.5t-25.5 61.5q0 36 29.5 64.5t74.5 44 t89 23.5t80 8q78 0 149.5 -36.5t122.5 -97.5q98 -121 98 -284v-631q0 -35 -25.5 -60.5t-62.5 -25.5z" />
<glyph unicode="n" horiz-adv-x="1075" d="M154 0q-35 0 -60.5 25.5t-25.5 60.5v963q0 35 25.5 60.5t60.5 25.5q37 0 62.5 -25.5t25.5 -60.5v-963q0 -35 -25.5 -60.5t-62.5 -25.5zM846 0q-35 0 -60.5 25.5t-25.5 60.5v631q0 96 -60 170t-161 74q-38 0 -103 -21q-15 -6 -33 -6q-37 0 -62.5 25.5t-25.5 62.5 q0 34 24 58t62 35t71 15.5t65 4.5q175 0 292 -134q105 -121 105 -284v-631q0 -35 -25.5 -60.5t-62.5 -25.5z" />
<glyph unicode="o" d="M666 0q-45 0 -70 26t-25 64q0 21 9 37t20 24t31 19q40 24 63.5 39.5t57 47t51.5 65t31.5 86.5t13.5 118q0 187 -90 311t-223 124t-223.5 -124.5t-90.5 -310.5q0 -62 12 -113.5t30.5 -85.5t49.5 -65t58 -50t67 -42q32 -17 46 -33.5t14 -46.5q0 -39 -26 -64.5t-69 -25.5 q-8 0 -20 4q-108 36 -186 122t-114 193.5t-36 225.5q0 159 65 294.5t178 215.5t247 80q100 0 190 -47t154.5 -127t102.5 -192t38 -237q0 -382 -336 -528q-10 -4 -20 -4z" />
<glyph unicode="p" horiz-adv-x="1124" d="M539 1135q134 0 246 -77t176.5 -211.5t64.5 -295.5q0 -241 -139 -395q-67 -75 -156.5 -115.5t-185.5 -40.5q-104 0 -174 31q-56 26 -56 82q0 36 26 61t62 25q18 0 33 -6q55 -19 99 -19q142 0 229.5 105t87.5 272q0 171 -90.5 290.5t-220.5 119.5q-128 0 -212.5 -118 t-84.5 -292v-903q0 -35 -25.5 -60.5t-62.5 -25.5q-35 0 -61.5 25.5t-26.5 60.5v1401q0 35 26.5 60.5t61.5 25.5q37 0 62.5 -25.5t25.5 -60.5v-37q126 123 295 123z" />
<glyph unicode="q" horiz-adv-x="1120" d="M887 1135q35 0 60.5 -25.5t25.5 -60.5v-1401q0 -35 -25.5 -60.5t-60.5 -25.5q-37 0 -62.5 25.5t-25.5 60.5v903q0 174 -84.5 292t-212.5 118q-130 0 -221 -119.5t-91 -290.5q0 -167 88 -272t230 -105q43 0 98 19q15 6 33 6q35 0 61.5 -24.5t26.5 -61.5q0 -56 -55 -82 q-70 -31 -174 -31q-96 0 -185.5 40.5t-156.5 115.5q-140 156 -140 395q0 161 64.5 295.5t176 211.5t245.5 77q171 0 297 -123v37q0 35 25.5 60.5t62.5 25.5z" />
<glyph unicode="r" horiz-adv-x="753" d="M156 0q-37 0 -62.5 25.5t-25.5 60.5v963q0 35 25.5 60.5t62.5 25.5q35 0 60.5 -25.5t25.5 -60.5v-963q0 -35 -25.5 -60.5t-60.5 -25.5zM313 985q0 52 45 74l119 65q22 11 41 11q33 0 60.5 -26t27.5 -60q0 -54 -45 -76l-119 -68q-20 -10 -41 -10q-35 0 -61.5 26.5 t-26.5 63.5z" />
<glyph unicode="s" horiz-adv-x="993" d="M485 0q-119 0 -242 43.5t-180 106.5q-24 27 -24 57q0 37 26.5 63.5t65.5 26.5q23 0 59 -25q61 -43 113 -66t79 -27.5t60 -4.5q127 0 187.5 42t60.5 101q0 42 -33 76t-86.5 58t-117.5 48t-128 54t-117.5 66.5t-86.5 93.5t-33 129q0 95 55.5 163.5t136 99t171.5 30.5 q103 0 209 -38t155 -93q25 -28 25 -58q0 -37 -25.5 -63.5t-64.5 -26.5q-29 0 -60 27q-49 40 -119.5 62t-128.5 22q-70 0 -125 -32t-55 -89q0 -36 26 -67.5t68 -53t96.5 -45.5t110.5 -45t110.5 -51.5t96.5 -64.5t68 -84t26 -111q0 -137 -114 -230.5t-265 -93.5z" />
<glyph unicode="t" horiz-adv-x="593" d="M236 1376v-123q0 -50 34.5 -84t85.5 -34q35 0 60.5 -25.5t25.5 -62.5q0 -35 -25.5 -60.5t-60.5 -25.5q-123 0 -209 85t-86 207v123q0 37 25.5 62.5t60.5 25.5q37 0 63 -25.5t26 -62.5zM61 293v553q0 37 25.5 62.5t60.5 25.5q37 0 63 -25.5t26 -62.5v-553 q0 -50 34.5 -84.5t85.5 -34.5q35 0 60.5 -25.5t25.5 -62.5q0 -35 -25.5 -60.5t-60.5 -25.5q-123 0 -209 85.5t-86 207.5z" />
<glyph unicode="u" horiz-adv-x="1075" d="M621 0q-37 0 -61.5 26.5t-24.5 61.5q0 28 15.5 50.5t41.5 31.5q78 28 123 96.5t45 161.5v621q0 35 25.5 60.5t60.5 25.5q37 0 62.5 -25.5t25.5 -60.5v-621q0 -149 -76 -262.5t-207 -159.5q-15 -6 -30 -6zM373 0q-14 0 -29 6q-131 46 -207 159.5t-76 262.5v621 q0 35 26 60.5t63 25.5q35 0 60.5 -25.5t25.5 -60.5v-621q0 -94 44.5 -162t122.5 -96q26 -9 42 -31.5t16 -50.5q0 -36 -25 -62t-63 -26z" />
<glyph unicode="v" horiz-adv-x="1003" d="M461 0q-28 0 -50.5 15.5t-31.5 41.5l-346 961q-4 10 -4 29q0 37 24.5 62.5t61.5 25.5q27 0 50 -16t32 -42l264 -731l262 731q9 26 31.5 42t50.5 16q37 0 62.5 -24.5t25.5 -61.5q0 -16 -6 -31l-344 -961q-9 -26 -31.5 -41.5t-50.5 -15.5z" />
<glyph unicode="w" horiz-adv-x="1720" d="M477 0q-28 0 -50.5 15.5t-31.5 41.5l-344 961q-6 15 -6 31q0 27 15.5 49.5t41.5 31.5q12 5 29 5q28 0 51.5 -16t32.5 -42l262 -731l260 731q9 26 32 42t50 16q37 0 62.5 -25.5t25.5 -60.5q0 -16 -6 -31l-342 -961q-9 -26 -31.5 -41.5t-50.5 -15.5zM1161 0q-64 3 -82 57 l-211 592q-4 10 -4 29q0 36 27 62t61 26q27 0 50 -15.5t30 -41.5l129 -363l262 731q9 26 32.5 42t51.5 16q36 0 62 -27t26 -61q0 -14 -6 -29l-346 -961q-9 -26 -31.5 -41.5t-50.5 -15.5z" />
<glyph unicode="x" horiz-adv-x="1140" d="M145 0q-29 0 -51 16q-35 27 -35 72q0 28 17 51l723 961q27 35 71 35q35 0 60.5 -25.5t25.5 -60.5q0 -30 -18 -54l-723 -960q-24 -35 -70 -35zM373 717q-43 0 -70 35l-182 243q-19 25 -19 54q0 35 25.5 60.5t60.5 25.5q45 0 72 -35l184 -244q17 -23 17 -51 q0 -37 -25.5 -62.5t-62.5 -25.5zM913 0q-45 0 -69 35l-230 303q-16 21 -16 53q0 36 24 61t60 25q48 0 72 -35l229 -303q16 -21 16 -51q0 -36 -25 -62t-61 -26z" />
<glyph unicode="y" horiz-adv-x="999" d="M324 -438q-37 0 -61.5 26.5t-24.5 59.5q0 18 4 28l491 1401q9 26 31.5 42t50.5 16q17 0 29 -5q26 -9 41.5 -31.5t15.5 -49.5q0 -19 -4 -29l-491 -1401q-9 -26 -31.5 -41.5t-50.5 -15.5zM338 350q-28 0 -50.5 16.5t-31.5 43.5l-213 610q-4 10 -4 29q0 35 25.5 60.5 t60.5 25.5q27 0 50 -16t32 -42l213 -610q4 -10 4 -29q0 -35 -25.5 -61.5t-60.5 -26.5z" />
<glyph unicode="z" horiz-adv-x="1038" d="M791 961h-629q-37 0 -62.5 25.5t-25.5 62.5q0 35 25.5 60.5t62.5 25.5h629q37 0 62.5 -25.5t25.5 -60.5q0 -37 -25.5 -62.5t-62.5 -25.5zM815 0h-670q-36 0 -62 26t-26 60q0 28 15 49l479 713q25 39 72 39q36 0 62 -27t26 -61q0 -28 -15 -49l-387 -576h506 q37 0 62.5 -25.5t25.5 -62.5q0 -35 -25.5 -60.5t-62.5 -25.5z" />
<glyph unicode="{" horiz-adv-x="661" d="M295 -168q-35 0 -60.5 25.5t-25.5 62.5v580l-156 94q-43 24 -43 74q0 49 43 73l156 95v577q0 37 25.5 63.5t60.5 26.5h151q37 0 63 -26.5t26 -63.5q0 -35 -26 -60.5t-63 -25.5h-61v-541q0 -50 -43 -75l-76 -45l76 -41q18 -9 30.5 -30.5t12.5 -45.5v-541h61q36 0 62.5 -26 t26.5 -62q0 -37 -26 -62.5t-63 -25.5h-151z" />
<glyph unicode="|" horiz-adv-x="387" d="M156 -438q-35 0 -61.5 25.5t-26.5 60.5v1767q0 35 26.5 61.5t61.5 26.5q36 0 62 -26t26 -62v-1767q0 -35 -25.5 -60.5t-62.5 -25.5z" />
<glyph unicode="}" horiz-adv-x="661" d="M285 -168h-152q-37 0 -62.5 25.5t-25.5 62.5q0 36 26 62t62 26h62v541q0 24 12.5 45.5t30.5 30.5l75 41l-75 45q-43 25 -43 75v541h-62q-37 0 -62.5 25.5t-25.5 60.5q0 37 25.5 63.5t62.5 26.5h152q35 0 60.5 -26.5t25.5 -63.5v-577l155 -95q43 -24 43 -73q0 -50 -43 -74 l-155 -94v-580q0 -37 -25.5 -62.5t-60.5 -25.5z" />
<glyph unicode="~" horiz-adv-x="1210" d="M141 362q-36 0 -62 26.5t-26 64.5q0 15 8 34q6 15 14 30t33 51t52.5 62t72.5 47t93 21q52 0 120 -24t123 -52.5t116.5 -52.5t100.5 -24q45 0 69 25.5t52 84.5q10 23 32.5 36.5t47.5 13.5q36 0 62 -26.5t26 -64.5q0 -13 -8 -32q-6 -15 -12.5 -28.5t-31.5 -50.5 t-52.5 -62.5t-74 -47.5t-97.5 -22q-54 0 -120.5 24t-118 52.5t-112.5 52.5t-104 24q-46 0 -69.5 -24t-53.5 -86q-25 -52 -80 -52z" />
<glyph unicode="&#xa1;" horiz-adv-x="382" d="M152 1503q43 0 73.5 -30.5t30.5 -73.5q0 -44 -30.5 -75.5t-73.5 -31.5q-44 0 -75.5 31.5t-31.5 75.5q0 43 31.5 73.5t75.5 30.5zM152 1090q35 0 60.5 -26t25.5 -63v-917q0 -35 -25.5 -61.5t-60.5 -26.5q-36 0 -62.5 26t-26.5 62v917q0 37 26 63t63 26z" />
<glyph unicode="&#xa2;" horiz-adv-x="911" d="M256 113q-37 0 -63 26q-80 82 -124 198t-44 243q0 126 42.5 234t122.5 185q23 23 60 23q36 0 62 -25t26 -61q0 -40 -27 -64q-112 -106 -112 -292q0 -95 31 -178.5t89 -141.5q23 -23 23 -57q0 -36 -25 -63t-61 -27zM713 907q-20 0 -43 13q-59 36 -138 36q-71 0 -115 31 t-44 94v119q0 37 25.5 62.5t62.5 25.5t62.5 -25.5t25.5 -62.5v-70q112 -6 207 -59q45 -25 45 -76q0 -35 -27 -61.5t-61 -26.5zM461 -162q-37 0 -62.5 25.5t-25.5 62.5v121q0 48 34 85.5t91 37.5q103 0 168 41q20 14 47 14q35 0 61.5 -26.5t26.5 -61.5q0 -50 -41 -74 q-93 -61 -211 -67v-70q0 -37 -25.5 -62.5t-62.5 -25.5z" />
<glyph unicode="&#xa3;" horiz-adv-x="1280" d="M299 907q-26 0 -49 16t-33 42q-29 89 -29 159q0 166 127 272.5t320 106.5q181 0 309 -95.5t170 -254.5q4 -16 4 -25q0 -35 -27.5 -59.5t-64.5 -24.5q-29 0 -47 16.5t-33 49.5q-17 39 -31 65.5t-39.5 57.5t-55 49.5t-75.5 31.5t-102 13q-125 0 -203 -54.5t-78 -148.5 q0 -45 19 -100q6 -15 6 -31q0 -58 -57 -80q-15 -6 -31 -6zM1075 0h-887q-36 0 -61 25t-25 63q0 31 25 59q25 31 62.5 75.5t47.5 55t31 40t24.5 37.5t17 38.5t19.5 50.5t21 68q23 76 80 76q36 0 65 -24t29 -75q0 -65 -46 -153.5t-103 -161.5h700q37 0 62.5 -25.5t25.5 -62.5 q0 -35 -25.5 -60.5t-62.5 -25.5zM752 659h-625q-37 0 -62.5 26t-25.5 63t25.5 62.5t62.5 25.5h625q37 0 62.5 -25.5t25.5 -62.5t-25.5 -63t-62.5 -26z" />
<glyph unicode="&#xa4;" horiz-adv-x="1243" d="M1073 162q-37 0 -61 24l-123 123q-140 -98 -307 -98q-170 0 -310 98l-122 -123q-24 -24 -62 -24q-35 0 -61.5 25.5t-26.5 60.5q0 36 27 63l180 178q27 27 63 27q30 0 60 -27q32 -28 59 -46.5t80 -37t113 -18.5t112.5 18.5t78 36.5t58.5 47q30 27 62 27q34 0 61 -27 l181 -178q26 -29 26 -63q0 -33 -26 -59.5t-62 -26.5zM145 567q-31 0 -54.5 20.5t-29.5 51.5q-10 55 -10 117q0 61 10 106q7 33 32 52.5t57 19.5q36 0 61 -26t25 -64q0 -12 -4.5 -42t-4.5 -46t4.5 -51t4.5 -46q0 -40 -28 -66t-63 -26zM1016 934q31 0 54.5 -20.5t29.5 -51.5 q10 -55 10 -117q0 -61 -10 -106q-7 -33 -32 -52.5t-56 -19.5q-36 0 -61 26t-25 64q0 12 4 42t4 46q0 17 -4 52t-4 45q0 40 27.5 66t62.5 26zM88 1339q38 0 62 -24l122 -123q140 98 308 98q169 0 309 -98l123 123q24 24 61 24q35 0 61.5 -25.5t26.5 -60.5q0 -37 -26 -63 l-181 -178q-27 -27 -61 -27q-32 0 -62 27q-33 29 -59.5 47t-79 36.5t-112.5 18.5t-112.5 -18.5t-78.5 -36.5t-59 -47q-30 -27 -60 -27q-36 0 -63 27l-180 178q-27 30 -27 63t26 59.5t62 26.5z" />
<glyph unicode="&#xa5;" horiz-adv-x="1212" d="M565 0q-37 0 -62.5 25.5t-25.5 60.5v152q0 35 25.5 60.5t62.5 25.5t62.5 -25.5t25.5 -60.5v-152q0 -35 -25.5 -60.5t-62.5 -25.5zM367 930q-50 0 -74 41l-248 397q-14 20 -14 47q0 35 26.5 61.5t61.5 26.5q50 0 74 -41l247 -397q15 -21 15 -47q0 -35 -26.5 -61.5 t-61.5 -26.5zM764 930q-35 0 -61.5 26.5t-26.5 61.5q0 27 14 47l248 397q24 41 74 41q35 0 61.5 -26.5t26.5 -61.5q0 -26 -15 -47l-247 -397q-24 -41 -74 -41zM946 397h-760q-37 0 -62.5 25.5t-25.5 60.5q0 37 25.5 62.5t62.5 25.5h760q35 0 60.5 -25.5t25.5 -62.5 q0 -35 -25.5 -60.5t-60.5 -25.5zM946 682h-760q-37 0 -62.5 25.5t-25.5 62.5q0 36 26 62t62 26h760q35 0 60.5 -26.5t25.5 -61.5q0 -37 -25.5 -62.5t-60.5 -25.5z" />
<glyph unicode="&#xa6;" horiz-adv-x="256" d="M86 948q-35 0 -60.5 25.5t-25.5 62.5v379q0 35 25.5 61.5t60.5 26.5q36 0 62 -26t26 -62v-379q0 -37 -25.5 -62.5t-62.5 -25.5zM86 0q-35 0 -60.5 25.5t-25.5 60.5v377q0 35 25.5 61.5t60.5 26.5q36 0 62 -26t26 -62v-377q0 -35 -25.5 -60.5t-62.5 -25.5z" />
<glyph unicode="&#xa7;" horiz-adv-x="1218" d="M989 -106q0 -79 -36.5 -143.5t-97 -105t-136 -62t-156.5 -21.5q-176 0 -308 90t-181 211q-8 19 -8 37q0 37 25 62.5t63 25.5q46 0 75 -49q17 -31 30.5 -51.5t43 -52t61.5 -51t83.5 -34t111.5 -14.5q65 0 119.5 14t95.5 52t41 96q0 32 -14.5 57t-39.5 45.5t-79.5 49.5 t-111.5 57t-160 81t-203 109q-77 43 -119.5 127t-42.5 170q0 67 26.5 134t78.5 112q27 24 59 24q37 0 63.5 -25.5t26.5 -60.5q0 -27 -21 -58.5t-42 -66t-21 -69.5q0 -46 31.5 -86t77.5 -68q52 -36 131.5 -75t148 -68t142 -70t125 -83t85 -104t33.5 -136zM147 1171 q0 79 36.5 143.5t97 105t136 62t156.5 21.5q176 0 308.5 -90t181.5 -211q8 -19 8 -37q0 -37 -25 -62.5t-63 -25.5q-47 0 -76 49q-18 31 -31 51t-42.5 52t-61 51t-83 34t-111.5 15q-65 0 -119.5 -14t-95.5 -52t-41 -96q0 -32 14.5 -57t39.5 -45.5t79.5 -49.5t111.5 -57 t160 -81t203 -109q77 -43 119.5 -127t42.5 -170q0 -67 -26.5 -134t-78.5 -112q-27 -24 -59 -24q-37 0 -63.5 25.5t-26.5 60.5q0 27 21 58.5t42 66t21 69.5q0 46 -31.5 86t-77.5 68q-52 36 -132 75t-148.5 68t-142 70t-125 83t-85 104t-33.5 136z" />
<glyph unicode="&#xa8;" horiz-adv-x="710" d="M164 1413q-43 0 -74 31t-31 74q0 44 31 75t74 31t73.5 -31t30.5 -75q0 -43 -30.5 -74t-73.5 -31zM465 1413q-43 0 -74 31t-31 74q0 44 31 75t74 31t73.5 -31t30.5 -75q0 -43 -30.5 -74t-73.5 -31z" />
<glyph unicode="&#xa9;" horiz-adv-x="1695" d="M793 309q-81 0 -157.5 29.5t-139 84t-100.5 141t-38 190.5q0 84 25 157t67.5 125t98 89.5t118 56t126.5 18.5q73 0 153.5 -27t126.5 -67q31 -28 31 -66q0 -35 -26.5 -61.5t-61.5 -26.5q-34 0 -58 21q-21 17 -71 34t-94 17q-38 0 -79.5 -13t-84 -41t-70 -84t-27.5 -132 q0 -61 18.5 -109.5t47 -78t65 -49t68.5 -27t62 -7.5q49 0 108.5 16t87.5 33q23 13 45 13q35 0 61.5 -26.5t26.5 -61.5q0 -51 -45 -76q-47 -28 -129 -50t-155 -22zM684 0q-10 0 -16 2q-178 33 -320 140.5t-221.5 267t-79.5 340.5q0 154 60 294.5t162 242t242.5 162 t295.5 60.5t295.5 -60.5t242.5 -162t162 -242t60 -294.5q0 -275 -176 -486.5t-445 -261.5q-6 -2 -16 -2q-34 0 -61 25.5t-27 60.5q0 31 19.5 55.5t51.5 30.5q209 38 344.5 201.5t135.5 376.5q0 158 -78.5 293t-213.5 213.5t-294 78.5t-294 -78.5t-213.5 -213.5t-78.5 -293 q0 -213 135 -376.5t344 -201.5q32 -6 52 -30.5t20 -55.5q0 -36 -26.5 -61t-61.5 -25z" />
<glyph unicode="&#xab;" horiz-adv-x="876" d="M309 152q-53 0 -78 45l-184 335q-10 20 -10 43q0 21 10 41l184 338q25 45 78 45q35 0 61.5 -27t26.5 -61q0 -21 -12 -41l-162 -295l162 -294q12 -21 12 -43q0 -34 -26.5 -60t-61.5 -26zM643 152q-53 0 -78 45l-184 335q-10 20 -10 43q0 21 10 41l184 338q25 45 78 45 q35 0 61.5 -27t26.5 -61q0 -21 -12 -41l-162 -295l162 -294q12 -21 12 -43q0 -34 -26.5 -60t-61.5 -26z" />
<glyph unicode="&#xac;" horiz-adv-x="1224" d="M94 618h895q36 0 62 -26t26 -62v-198q0 -37 -25.5 -62.5t-62.5 -25.5q-35 0 -60.5 25.5t-25.5 62.5v112h-809q-35 0 -60.5 25.5t-25.5 62.5q0 35 25.5 60.5t60.5 25.5z" />
<glyph unicode="&#xad;" horiz-adv-x="790" d="M559 446h-412q-35 0 -60.5 25.5t-25.5 60.5q0 37 25.5 63t60.5 26h412q37 0 62.5 -26t25.5 -63q0 -35 -25.5 -60.5t-62.5 -25.5z" />
<glyph unicode="&#xae;" horiz-adv-x="1695" d="M805 838h14q63 0 106.5 29t43.5 65q0 34 -43.5 63t-106.5 29h-174v-627q0 -35 -25.5 -60.5t-62.5 -25.5q-35 0 -60.5 25.5t-25.5 60.5v715q0 35 25.5 60.5t60.5 25.5h262q127 0 219 -70q105 -79 105 -196q0 -113 -96.5 -190.5t-215.5 -77.5h-26q-37 0 -62.5 25.5 t-25.5 62.5q0 35 25.5 60.5t62.5 25.5zM1047 317q-37 0 -66 29l-90 98q-23 26 -23 62t26 60t62 24q40 0 64 -27l90 -98q23 -26 23 -62q0 -33 -25.5 -59.5t-60.5 -26.5zM684 0q-10 0 -16 2q-178 33 -320 140.5t-221.5 267t-79.5 340.5q0 154 60 294.5t162 242t242.5 162 t295.5 60.5t295.5 -60.5t242.5 -162t162 -242t60 -294.5q0 -275 -176 -486.5t-445 -261.5q-6 -2 -16 -2q-34 0 -61 25.5t-27 60.5q0 31 19.5 55.5t51.5 30.5q209 38 344.5 201.5t135.5 376.5q0 158 -78.5 293t-213.5 213.5t-294 78.5t-294 -78.5t-213.5 -213.5t-78.5 -293 q0 -213 135 -376.5t344 -201.5q32 -6 52 -30.5t20 -55.5q0 -36 -26.5 -61t-61.5 -25z" />
<glyph unicode="&#xb0;" horiz-adv-x="858" d="M264 401q-19 0 -49 15q-77 53 -121.5 142.5t-44.5 191.5q0 158 99.5 271.5t238.5 113.5q141 0 240.5 -113t99.5 -272q0 -103 -45.5 -194t-120.5 -138q-25 -17 -49 -17q-34 0 -61 26.5t-27 64.5q0 36 39 69q30 27 46 46t30 55t14 81q0 93 -48 155.5t-118 62.5 q-68 0 -116 -62.5t-48 -155.5q0 -65 22.5 -103t67.5 -79q20 -17 28.5 -30.5t8.5 -36.5q0 -40 -25.5 -66.5t-60.5 -26.5z" />
<glyph unicode="&#xb1;" horiz-adv-x="1206" d="M561 231q-35 0 -60.5 25.5t-25.5 60.5v664q0 35 25.5 61.5t60.5 26.5q36 0 62 -26t26 -62v-664q0 -35 -25.5 -60.5t-62.5 -25.5zM317 446h-198q-37 0 -62.5 26t-25.5 63q0 35 25.5 60.5t62.5 25.5h198q37 0 63 -25.5t26 -60.5q0 -37 -26 -63t-63 -26zM1006 446h-201 q-35 0 -60.5 25.5t-25.5 60.5q0 37 25.5 63t60.5 26h201q36 0 62 -26.5t26 -62.5q0 -35 -26.5 -60.5t-61.5 -25.5zM1006 0h-887q-37 0 -62.5 25.5t-25.5 62.5q0 35 25.5 60.5t62.5 25.5h887q37 0 62.5 -25.5t25.5 -60.5q0 -37 -25.5 -62.5t-62.5 -25.5z" />
<glyph unicode="&#xb4;" horiz-adv-x="391" d="M125 1327q-35 0 -61.5 26.5t-26.5 61.5q0 19 10 39l62 121q25 49 77 49q35 0 61.5 -27.5t26.5 -60.5q0 -19 -10 -39l-61 -123q-23 -47 -78 -47z" />
<glyph unicode="&#xb5;" horiz-adv-x="1044" d="M156 -436q-37 0 -62.5 25.5t-25.5 62.5v1395q0 37 25.5 62.5t62.5 25.5q35 0 60.5 -25.5t25.5 -62.5v-1395q0 -37 -25.5 -62.5t-60.5 -25.5zM506 0q-74 0 -127 18q-64 22 -64 82q0 38 27 64t66 26q14 0 46 -8t58 -8q100 0 177 77.5t77 184.5v611q0 37 25.5 62.5 t60.5 25.5q37 0 62.5 -25.5t25.5 -62.5v-611q0 -119 -59 -219.5t-159 -158.5t-216 -58z" />
<glyph unicode="&#xb6;" horiz-adv-x="1232" d="M588 -438q-35 0 -60.5 25.5t-25.5 60.5v1517q0 37 25.5 62.5t60.5 25.5q37 0 62.5 -25.5t25.5 -62.5v-1517q0 -35 -25.5 -60.5t-62.5 -25.5zM997 -438q-37 0 -62.5 25.5t-25.5 60.5v1679h-503q-86 0 -147.5 -60.5t-61.5 -146.5q0 -73 45 -130.5t116 -74.5q32 -7 50 -31 t18 -55q0 -37 -27 -61.5t-61 -24.5q-13 0 -19 2q-131 31 -213.5 135.5t-82.5 239.5q0 158 112.5 270.5t270.5 112.5h591q35 0 60.5 -26.5t25.5 -61.5v-1767q0 -35 -25.5 -60.5t-60.5 -25.5z" />
<glyph unicode="&#xb7;" horiz-adv-x="808" d="M362 326q-43 0 -73.5 30.5t-30.5 73.5q0 44 30.5 75.5t73.5 31.5t74 -31.5t31 -75.5q0 -43 -31 -73.5t-74 -30.5z" />
<glyph unicode="&#xb8;" horiz-adv-x="391" d="M125 -365q-35 0 -61.5 27t-26.5 62q0 18 10 38l62 121q25 49 77 49q35 0 61.5 -27.5t26.5 -60.5q0 -19 -10 -39l-61 -122q-10 -22 -31.5 -35t-46.5 -13z" />
<glyph unicode="&#xbb;" horiz-adv-x="876" d="M485 152q-35 0 -61.5 26t-26.5 60q0 20 13 43l161 294l-161 295q-13 20 -13 41q0 34 26.5 61t61.5 27q53 0 78 -45l185 -338q10 -20 10 -41q0 -23 -10 -43l-185 -335q-25 -45 -78 -45zM152 152q-35 0 -62 26t-27 60q0 20 13 43l162 294l-162 295q-13 20 -13 41 q0 34 27 61t62 27q52 0 77 -45l185 -338q10 -20 10 -41q0 -23 -10 -43l-185 -335q-25 -45 -77 -45z" />
<glyph unicode="&#xbf;" horiz-adv-x="970" d="M451 1503q43 0 73.5 -30.5t30.5 -73.5q0 -44 -30.5 -75.5t-73.5 -31.5t-74 31.5t-31 75.5q0 43 31 73.5t74 30.5zM201 422q0 -103 73.5 -176.5t176.5 -73.5q27 0 66 12.5t81.5 35.5t72 65.5t29.5 93.5q0 37 25.5 62.5t60.5 25.5q37 0 62.5 -25.5t25.5 -62.5 q0 -86 -29 -155t-74 -110.5t-103.5 -69t-111.5 -38t-105 -10.5q-179 0 -306 127t-127 305q0 97 27.5 177.5t76 136t109 91t131.5 52.5v178q0 37 26 62.5t63 25.5q36 0 62 -26t26 -62v-264q0 -35 -25.5 -60.5t-62.5 -25.5q-104 0 -177 -76.5t-73 -214.5z" />
<glyph unicode="&#xc0;" horiz-adv-x="1370" d="M643 1608q-55 0 -78 47l-61 123q-10 20 -10 39q0 33 26.5 60.5t61.5 27.5q51 0 77 -50l62 -120q10 -20 10 -39q0 -35 -26.5 -61.5t-61.5 -26.5zM113 0q-36 0 -61 26t-25 60q0 20 6 35l530 1327q9 25 31.5 40t48.5 15t49 -15t33 -40l530 -1329q7 -18 7 -31 q0 -35 -25.5 -61.5t-62.5 -26.5q-27 0 -49.5 14.5t-32.5 40.5l-449 1125l-268 -682h405q35 0 60.5 -25.5t25.5 -60.5q0 -37 -25.5 -62.5t-60.5 -25.5h-475l-110 -271q-10 -24 -32.5 -38.5t-49.5 -14.5z" />
<glyph unicode="&#xc1;" horiz-adv-x="1370" d="M629 1608q-35 0 -61.5 26.5t-26.5 61.5q0 19 10 39l61 120q26 50 78 50q35 0 61.5 -27.5t26.5 -60.5q0 -19 -10 -39l-61 -123q-23 -47 -78 -47zM113 0q-36 0 -61 26t-25 60q0 20 6 35l530 1327q9 25 31.5 40t48.5 15t49 -15t33 -40l530 -1329q7 -18 7 -31 q0 -35 -25.5 -61.5t-62.5 -26.5q-27 0 -49.5 14.5t-32.5 40.5l-449 1125l-268 -682h405q35 0 60.5 -25.5t25.5 -60.5q0 -37 -25.5 -62.5t-60.5 -25.5h-475l-110 -271q-10 -24 -32.5 -38.5t-49.5 -14.5z" />
<glyph unicode="&#xc2;" horiz-adv-x="1370" d="M651 1708l-112 -84q-21 -16 -47 -16q-39 0 -67 28t-28 64q0 38 39 65l166 123q23 17 49 17q28 0 51 -17l166 -123q39 -27 39 -65q0 -36 -27.5 -64t-66.5 -28q-26 0 -47 16zM113 0q-36 0 -61 26t-25 60q0 20 6 35l530 1327q9 25 31.5 40t48.5 15t49 -15t33 -40l530 -1329 q7 -18 7 -31q0 -35 -25.5 -61.5t-62.5 -26.5q-27 0 -49.5 14.5t-32.5 40.5l-449 1125l-268 -682h405q35 0 60.5 -25.5t25.5 -60.5q0 -37 -25.5 -62.5t-60.5 -25.5h-475l-110 -271q-10 -24 -32.5 -38.5t-49.5 -14.5z" />
<glyph unicode="&#xc3;" horiz-adv-x="1370" d="M418 1608q-32 0 -59 26t-27 64q0 40 39 71q33 27 77.5 45.5t83.5 18.5q36 0 134 -27q81 -22 104 -22q21 0 55.5 24.5t59.5 24.5q33 0 59.5 -26t26.5 -62q0 -40 -36.5 -73t-82 -48.5t-84.5 -15.5q-44 0 -147 30q-75 21 -93 21t-52 -25.5t-58 -25.5zM113 0q-36 0 -61 26 t-25 60q0 20 6 35l530 1327q9 25 31.5 40t48.5 15t49 -15t33 -40l530 -1329q7 -18 7 -31q0 -35 -25.5 -61.5t-62.5 -26.5q-27 0 -49.5 14.5t-32.5 40.5l-449 1125l-268 -682h405q35 0 60.5 -25.5t25.5 -60.5q0 -37 -25.5 -62.5t-60.5 -25.5h-475l-110 -271 q-10 -24 -32.5 -38.5t-49.5 -14.5z" />
<glyph unicode="&#xc4;" horiz-adv-x="1370" d="M492 1608q-43 0 -74 30.5t-31 73.5q0 44 31 75.5t74 31.5t73.5 -31.5t30.5 -75.5q0 -43 -30.5 -73.5t-73.5 -30.5zM793 1608q-43 0 -74 30.5t-31 73.5q0 44 31 75.5t74 31.5t73.5 -31.5t30.5 -75.5q0 -43 -30.5 -73.5t-73.5 -30.5zM113 0q-36 0 -61 26t-25 60q0 20 6 35 l530 1327q9 25 31.5 40t48.5 15t49 -15t33 -40l530 -1329q7 -18 7 -31q0 -35 -25.5 -61.5t-62.5 -26.5q-27 0 -49.5 14.5t-32.5 40.5l-449 1125l-268 -682h405q35 0 60.5 -25.5t25.5 -60.5q0 -37 -25.5 -62.5t-60.5 -25.5h-475l-110 -271q-10 -24 -32.5 -38.5t-49.5 -14.5z " />
<glyph unicode="&#xc5;" horiz-adv-x="1370" d="M643 1608q-43 0 -73.5 30.5t-30.5 73.5q0 44 30.5 75.5t73.5 31.5t74 -31.5t31 -75.5q0 -43 -31 -73.5t-74 -30.5zM113 0q-36 0 -61 26t-25 60q0 20 6 35l530 1327q9 25 31.5 40t48.5 15t49 -15t33 -40l530 -1329q7 -18 7 -31q0 -35 -25.5 -61.5t-62.5 -26.5 q-27 0 -49.5 14.5t-32.5 40.5l-449 1125l-268 -682h405q35 0 60.5 -25.5t25.5 -60.5q0 -37 -25.5 -62.5t-60.5 -25.5h-475l-110 -271q-10 -24 -32.5 -38.5t-49.5 -14.5z" />
<glyph unicode="&#xc6;" horiz-adv-x="1515" d="M115 6q-36 0 -62 26t-26 60q0 19 10 39l670 1321q25 51 79 51h539q38 0 63 -26t25 -62t-26 -62t-62 -26h-451v-485h451q38 0 63 -26t25 -62q0 -35 -25.5 -60.5t-62.5 -25.5h-451v-494h451q38 0 63 -26t25 -62q0 -35 -25.5 -60.5t-62.5 -25.5h-539q-36 0 -62 26t-26 60 v995l-297 -592h138q38 0 64 -19t26 -54t-25.5 -60.5t-60.5 -25.5h-215l-135 -277q-24 -47 -78 -47z" />
<glyph unicode="&#xc7;" horiz-adv-x="1296" d="M688 0q-114 0 -227 47.5t-201 134.5q-215 211 -215 570q0 358 215 569q89 86 202 134t224 48q122 0 249 -52t177 -110q25 -28 25 -59q0 -39 -26.5 -64.5t-63.5 -25.5q-30 0 -60 27q-50 43 -132.5 75.5t-162.5 32.5q-59 0 -121 -18.5t-125.5 -63t-113 -108.5t-80.5 -164.5 t-31 -222.5q0 -121 31 -221t80 -164.5t113.5 -108.5t128 -63t126.5 -19q81 0 171.5 29.5t158.5 68.5q24 15 45 15q39 0 64.5 -26.5t25.5 -63.5q0 -43 -37 -70q-61 -46 -195 -86.5t-245 -40.5zM618 -365q-35 0 -61.5 27t-26.5 62q0 16 11 38l61 121q12 23 33 36t45 13 q35 0 61.5 -27.5t26.5 -60.5q0 -19 -10 -39l-62 -122q-10 -22 -31.5 -35t-46.5 -13z" />
<glyph unicode="&#xc8;" horiz-adv-x="882" d="M430 1608q-55 0 -78 47l-61 123q-10 20 -10 39q0 33 26.5 60.5t61.5 27.5q51 0 77 -50l62 -120q10 -20 10 -39q0 -35 -26.5 -61.5t-61.5 -26.5zM694 0h-538q-37 0 -62.5 26.5t-25.5 61.5v1327q0 37 25.5 62.5t62.5 25.5h538q35 0 60.5 -25.5t25.5 -62.5 q0 -35 -25.5 -60.5t-60.5 -25.5h-452v-1155h452q35 0 60.5 -25.5t25.5 -60.5q0 -37 -25.5 -62.5t-60.5 -25.5zM659 659h-297q-37 0 -62.5 26t-25.5 63t25.5 62.5t62.5 25.5h297q37 0 63 -25.5t26 -62.5t-26 -63t-63 -26z" />
<glyph unicode="&#xc9;" horiz-adv-x="882" d="M403 1608q-35 0 -61.5 26.5t-26.5 61.5q0 17 11 39l61 120q26 50 78 50q35 0 61.5 -27.5t26.5 -60.5q0 -19 -10 -39l-62 -123q-23 -47 -78 -47zM694 0h-538q-37 0 -62.5 26.5t-25.5 61.5v1327q0 37 25.5 62.5t62.5 25.5h538q35 0 60.5 -25.5t25.5 -62.5 q0 -35 -25.5 -60.5t-60.5 -25.5h-452v-1155h452q35 0 60.5 -25.5t25.5 -60.5q0 -37 -25.5 -62.5t-60.5 -25.5zM659 659h-297q-37 0 -62.5 26t-25.5 63t25.5 62.5t62.5 25.5h297q37 0 63 -25.5t26 -62.5t-26 -63t-63 -26z" />
<glyph unicode="&#xca;" horiz-adv-x="882" d="M416 1708l-113 -84q-21 -16 -47 -16q-39 0 -66.5 28t-27.5 64q0 38 39 65l166 123q23 17 49 17q28 0 51 -17l166 -123q39 -27 39 -65q0 -36 -27.5 -64t-66.5 -28q-27 0 -48 16zM694 0h-538q-37 0 -62.5 26.5t-25.5 61.5v1327q0 37 25.5 62.5t62.5 25.5h538 q35 0 60.5 -25.5t25.5 -62.5q0 -35 -25.5 -60.5t-60.5 -25.5h-452v-1155h452q35 0 60.5 -25.5t25.5 -60.5q0 -37 -25.5 -62.5t-60.5 -25.5zM659 659h-297q-37 0 -62.5 26t-25.5 63t25.5 62.5t62.5 25.5h297q37 0 63 -25.5t26 -62.5t-26 -63t-63 -26z" />
<glyph unicode="&#xcb;" horiz-adv-x="882" d="M270 1608q-43 0 -73.5 30.5t-30.5 73.5q0 44 30.5 75.5t73.5 31.5t74 -31.5t31 -75.5q0 -43 -31 -73.5t-74 -30.5zM571 1608q-43 0 -73.5 30.5t-30.5 73.5q0 44 30.5 75.5t73.5 31.5t74 -31.5t31 -75.5q0 -43 -31 -73.5t-74 -30.5zM694 0h-538q-37 0 -62.5 26.5 t-25.5 61.5v1327q0 37 25.5 62.5t62.5 25.5h538q35 0 60.5 -25.5t25.5 -62.5q0 -35 -25.5 -60.5t-60.5 -25.5h-452v-1155h452q35 0 60.5 -25.5t25.5 -60.5q0 -37 -25.5 -62.5t-60.5 -25.5zM659 659h-297q-37 0 -62.5 26t-25.5 63t25.5 62.5t62.5 25.5h297q37 0 63 -25.5 t26 -62.5t-26 -63t-63 -26z" />
<glyph unicode="&#xcc;" horiz-adv-x="385" d="M154 0q-35 0 -60.5 25.5t-25.5 62.5v1333q0 37 25.5 62.5t60.5 25.5q37 0 62.5 -25.5t25.5 -62.5v-1333q0 -37 -25.5 -62.5t-62.5 -25.5zM156 1608q-55 0 -78 47l-62 123q-10 20 -10 39q0 33 26.5 60.5t61.5 27.5q52 0 78 -50l61 -120q11 -22 11 -39q0 -35 -26.5 -61.5 t-61.5 -26.5z" />
<glyph unicode="&#xcd;" horiz-adv-x="385" d="M154 0q-35 0 -60.5 25.5t-25.5 62.5v1333q0 37 25.5 62.5t60.5 25.5q37 0 62.5 -25.5t25.5 -62.5v-1333q0 -37 -25.5 -62.5t-62.5 -25.5zM135 1608q-35 0 -61.5 26.5t-26.5 61.5q0 19 10 39l62 120q26 50 78 50q35 0 61.5 -27.5t26.5 -60.5q0 -17 -11 -39l-61 -123 q-23 -47 -78 -47z" />
<glyph unicode="&#xce;" horiz-adv-x="385" d="M154 0q-35 0 -60.5 25.5t-25.5 62.5v1333q0 37 25.5 62.5t60.5 25.5q37 0 62.5 -25.5t25.5 -62.5v-1333q0 -37 -25.5 -62.5t-62.5 -25.5zM147 1708l-112 -84q-21 -16 -47 -16q-39 0 -66.5 28t-27.5 64q0 39 38 65l166 123q23 17 49 17q29 0 52 -17l166 -123 q38 -26 38 -65q0 -36 -27.5 -64t-66.5 -28q-26 0 -47 16z" />
<glyph unicode="&#xcf;" horiz-adv-x="385" d="M154 0q-35 0 -60.5 25.5t-25.5 62.5v1333q0 37 25.5 62.5t60.5 25.5q37 0 62.5 -25.5t25.5 -62.5v-1333q0 -37 -25.5 -62.5t-62.5 -25.5zM-4 1608q-43 0 -74 30.5t-31 73.5q0 44 31 75.5t74 31.5t73.5 -31.5t30.5 -75.5q0 -43 -30.5 -73.5t-73.5 -30.5zM297 1608 q-43 0 -73.5 30.5t-30.5 73.5q0 44 30.5 75.5t73.5 31.5t73.5 -31.5t30.5 -75.5q0 -43 -30.5 -73.5t-73.5 -30.5z" />
<glyph unicode="&#xd0;" horiz-adv-x="1296" d="M524 0h-370q-37 0 -62 25q-26 26 -26 63v412q0 37 25.5 62.5t62.5 25.5t62.5 -25.5t25.5 -62.5v-328h282q114 9 205.5 60t149 132t88 183t30.5 217t-31 212t-80.5 160t-113 107.5t-126.5 64t-122 19.5h-282v-330q0 -37 -25.5 -62.5t-62.5 -25.5t-62.5 25.5t-25.5 62.5 v418q0 36 26 62t62 26h370q118 0 231.5 -48.5t200.5 -133.5q215 -211 215 -569q0 -201 -62.5 -342.5t-152.5 -229.5q-85 -82 -198 -131t-234 -49zM502 659h-520q-36 0 -62 26.5t-26 62.5q0 37 25.5 62.5t62.5 25.5h520q36 0 62 -26t26 -62q0 -35 -26.5 -62t-61.5 -27z" />
<glyph unicode="&#xd1;" horiz-adv-x="1363" d="M395 1608q-32 0 -59 26t-27 64q0 40 39 71q33 27 78 45.5t84 18.5q35 0 133 -27q81 -22 105 -22q21 0 55 24.5t59 24.5q33 0 59.5 -26t26.5 -62q0 -40 -36.5 -73t-82 -48.5t-84.5 -15.5q-44 0 -147 30q-75 21 -92 21q-18 0 -52 -25.5t-59 -25.5zM1128 0q-46 0 -88 57 l-798 1096v-1065q0 -37 -25.5 -62.5t-62.5 -25.5q-35 0 -60.5 25.5t-25.5 62.5v1333q0 36 26 61t62 25q45 0 69 -34l817 -1119v1067q0 37 25.5 62.5t60.5 25.5q37 0 63 -25.5t26 -62.5v-1333q0 -44 -25 -66t-64 -22z" />
<glyph unicode="&#xd2;" horiz-adv-x="1447" d="M803 0q-30 0 -57 25.5t-27 66.5q0 31 15.5 47.5t47.5 32.5q65 34 112.5 65t97.5 78.5t81.5 102t51.5 131.5t20 170q0 173 -62 313.5t-167.5 218.5t-231.5 78t-231.5 -78t-167.5 -218.5t-62 -313.5q0 -92 19.5 -168t50 -130.5t80 -102t97.5 -79.5t114 -67q34 -17 48.5 -33 t14.5 -47q0 -45 -27.5 -68.5t-60.5 -23.5q-10 0 -22 4q-151 47 -264 161.5t-169.5 263t-56.5 308.5q0 113 29 224.5t85 208.5t132 172t177.5 118t213.5 43t213.5 -43.5t177 -118.5t131.5 -172t84.5 -207t28.5 -221q0 -163 -59.5 -316.5t-173 -268t-257.5 -152.5 q-12 -4 -26 -4zM702 1608q-54 0 -77 47l-62 123q-10 20 -10 39q0 33 26.5 60.5t61.5 27.5q52 0 78 -50l61 -120q11 -22 11 -39q0 -35 -27 -61.5t-62 -26.5z" />
<glyph unicode="&#xd3;" horiz-adv-x="1447" d="M803 0q-30 0 -57 25.5t-27 66.5q0 31 15.5 47.5t47.5 32.5q65 34 112.5 65t97.5 78.5t81.5 102t51.5 131.5t20 170q0 173 -62 313.5t-167.5 218.5t-231.5 78t-231.5 -78t-167.5 -218.5t-62 -313.5q0 -92 19.5 -168t50 -130.5t80 -102t97.5 -79.5t114 -67q34 -17 48.5 -33 t14.5 -47q0 -45 -27.5 -68.5t-60.5 -23.5q-10 0 -22 4q-151 47 -264 161.5t-169.5 263t-56.5 308.5q0 113 29 224.5t85 208.5t132 172t177.5 118t213.5 43t213.5 -43.5t177 -118.5t131.5 -172t84.5 -207t28.5 -221q0 -163 -59.5 -316.5t-173 -268t-257.5 -152.5 q-12 -4 -26 -4zM641 1645q-35 0 -61.5 26.5t-26.5 61.5q0 19 10 39l62 120q26 50 77 50q35 0 62 -28t27 -61q0 -16 -11 -38l-61 -123q-23 -47 -78 -47z" />
<glyph unicode="&#xd4;" horiz-adv-x="1447" d="M803 0q-30 0 -57 25.5t-27 66.5q0 31 15.5 47.5t47.5 32.5q65 34 112.5 65t97.5 78.5t81.5 102t51.5 131.5t20 170q0 173 -62 313.5t-167.5 218.5t-231.5 78t-231.5 -78t-167.5 -218.5t-62 -313.5q0 -92 19.5 -168t50 -130.5t80 -102t97.5 -79.5t114 -67q34 -17 48.5 -33 t14.5 -47q0 -45 -27.5 -68.5t-60.5 -23.5q-10 0 -22 4q-151 47 -264 161.5t-169.5 263t-56.5 308.5q0 113 29 224.5t85 208.5t132 172t177.5 118t213.5 43t213.5 -43.5t177 -118.5t131.5 -172t84.5 -207t28.5 -221q0 -163 -59.5 -316.5t-173 -268t-257.5 -152.5 q-12 -4 -26 -4zM676 1708l-113 -84q-21 -16 -47 -16q-39 0 -66.5 28t-27.5 64q0 38 39 65l166 123q23 17 49 17q28 0 51 -17l166 -123q39 -27 39 -65q0 -36 -27.5 -64t-66.5 -28q-26 0 -47 16z" />
<glyph unicode="&#xd5;" horiz-adv-x="1447" d="M803 0q-30 0 -57 25.5t-27 66.5q0 31 15.5 47.5t47.5 32.5q65 34 112.5 65t97.5 78.5t81.5 102t51.5 131.5t20 170q0 173 -62 313.5t-167.5 218.5t-231.5 78t-231.5 -78t-167.5 -218.5t-62 -313.5q0 -92 19.5 -168t50 -130.5t80 -102t97.5 -79.5t114 -67q34 -17 48.5 -33 t14.5 -47q0 -45 -27.5 -68.5t-60.5 -23.5q-10 0 -22 4q-151 47 -264 161.5t-169.5 263t-56.5 308.5q0 113 29 224.5t85 208.5t132 172t177.5 118t213.5 43t213.5 -43.5t177 -118.5t131.5 -172t84.5 -207t28.5 -221q0 -163 -59.5 -316.5t-173 -268t-257.5 -152.5 q-12 -4 -26 -4zM457 1608q-32 0 -59 26t-27 64q0 40 39 71q33 27 77.5 45.5t83.5 18.5q36 0 134 -27q81 -22 104 -22q21 0 55.5 24.5t59.5 24.5q33 0 59.5 -26t26.5 -62q0 -40 -36.5 -73t-82 -48.5t-84.5 -15.5q-45 0 -148 30q-75 21 -92 21q-19 0 -52 -25.5t-58 -25.5z" />
<glyph unicode="&#xd6;" horiz-adv-x="1447" d="M803 0q-30 0 -57 25.5t-27 66.5q0 31 15.5 47.5t47.5 32.5q65 34 112.5 65t97.5 78.5t81.5 102t51.5 131.5t20 170q0 173 -62 313.5t-167.5 218.5t-231.5 78t-231.5 -78t-167.5 -218.5t-62 -313.5q0 -92 19.5 -168t50 -130.5t80 -102t97.5 -79.5t114 -67q34 -17 48.5 -33 t14.5 -47q0 -45 -27.5 -68.5t-60.5 -23.5q-10 0 -22 4q-151 47 -264 161.5t-169.5 263t-56.5 308.5q0 113 29 224.5t85 208.5t132 172t177.5 118t213.5 43t213.5 -43.5t177 -118.5t131.5 -172t84.5 -207t28.5 -221q0 -163 -59.5 -316.5t-173 -268t-257.5 -152.5 q-12 -4 -26 -4zM539 1606q-43 0 -74 30.5t-31 73.5q0 44 31 75.5t74 31.5t73.5 -31.5t30.5 -75.5q0 -43 -30.5 -73.5t-73.5 -30.5zM840 1606q-43 0 -74 30.5t-31 73.5q0 44 31 75.5t74 31.5t73.5 -31.5t30.5 -75.5q0 -43 -30.5 -73.5t-73.5 -30.5z" />
<glyph unicode="&#xd7;" horiz-adv-x="931" d="M86 0q-29 0 -51 16q-35 27 -35 72q0 30 16 51l676 895q27 35 72 35q35 0 60.5 -25.5t25.5 -60.5q0 -28 -19 -53l-675 -895q-24 -35 -70 -35zM268 657q-42 0 -69 35l-181 238q-18 24 -18 53q0 35 25.5 60.5t60.5 25.5q45 0 72 -35l182 -237q16 -21 16 -52 q0 -37 -25.5 -62.5t-62.5 -25.5zM764 0q-46 0 -70 35l-186 246q-16 21 -16 53q0 36 23.5 61t59.5 25q48 0 72 -35l187 -246q16 -21 16 -51q0 -36 -25 -62t-61 -26z" />
<glyph unicode="&#xd8;" horiz-adv-x="1447" d="M96 -20q-35 0 -61.5 26.5t-26.5 61.5q0 31 23 57l141 166q-123 192 -123 446q0 113 28.5 224t84.5 208.5t132 172t177.5 118t214.5 43.5q227 0 393 -153l127 147q25 31 66 31q36 0 62 -26t26 -62q0 -32 -21 -56l-147 -172q129 -209 129 -471q0 -149 -44.5 -283 t-125.5 -236t-204.5 -162t-272.5 -60q-97 0 -161.5 18.5t-115.5 57.5q-27 20 -33.5 52t19.5 71q15 18 35 23t37.5 -0.5t33.5 -16.5q74 -51 187 -51q65 0 130.5 21.5t127 68t109 111.5t76 159.5t28.5 204.5q0 197 -80 348l-905 -1057q-24 -30 -66 -30zM225 719 q0 -167 62 -297l676 790q-123 117 -277 117q-126 0 -231.5 -78t-167.5 -218.5t-62 -313.5z" />
<glyph unicode="&#xd9;" horiz-adv-x="1335" d="M510 0q-17 0 -29 4q-99 26 -170.5 67.5t-119.5 98t-77 135t-41 169.5t-12 210v727q0 37 25.5 62.5t60.5 25.5q37 0 63 -25.5t26 -62.5v-727q0 -123 14 -208.5t33 -135.5t63 -84.5t78 -49t104 -36.5q32 -10 48 -32.5t16 -49.5q0 -37 -25 -62.5t-57 -25.5zM745 0 q-32 0 -56.5 25.5t-24.5 62.5q0 62 63 82q71 22 105 36.5t78.5 49t63 84.5t32.5 135.5t14 208.5v727q0 37 25.5 62.5t62.5 25.5q35 0 60.5 -25.5t25.5 -62.5v-727q0 -119 -12 -210t-41 -169.5t-77 -135t-119.5 -98t-170.5 -67.5q-12 -4 -29 -4zM633 1608q-55 0 -78 47 l-61 123q-11 22 -11 39q0 33 26.5 60.5t61.5 27.5q52 0 78 -50l62 -120q10 -20 10 -39q0 -35 -26.5 -61.5t-61.5 -26.5z" />
<glyph unicode="&#xda;" horiz-adv-x="1335" d="M510 0q-17 0 -29 4q-99 26 -170.5 67.5t-119.5 98t-77 135t-41 169.5t-12 210v727q0 37 25.5 62.5t60.5 25.5q37 0 63 -25.5t26 -62.5v-727q0 -123 14 -208.5t33 -135.5t63 -84.5t78 -49t104 -36.5q32 -10 48 -32.5t16 -49.5q0 -37 -25 -62.5t-57 -25.5zM745 0 q-32 0 -56.5 25.5t-24.5 62.5q0 62 63 82q71 22 105 36.5t78.5 49t63 84.5t32.5 135.5t14 208.5v727q0 37 25.5 62.5t62.5 25.5q35 0 60.5 -25.5t25.5 -62.5v-727q0 -119 -12 -210t-41 -169.5t-77 -135t-119.5 -98t-170.5 -67.5q-12 -4 -29 -4zM614 1608q-35 0 -61.5 26.5 t-26.5 61.5q0 17 11 39l61 120q26 50 78 50q35 0 61.5 -27.5t26.5 -60.5q0 -19 -10 -39l-62 -123q-23 -47 -78 -47z" />
<glyph unicode="&#xdb;" horiz-adv-x="1335" d="M510 0q-17 0 -29 4q-99 26 -170.5 67.5t-119.5 98t-77 135t-41 169.5t-12 210v727q0 37 25.5 62.5t60.5 25.5q37 0 63 -25.5t26 -62.5v-727q0 -123 14 -208.5t33 -135.5t63 -84.5t78 -49t104 -36.5q32 -10 48 -32.5t16 -49.5q0 -37 -25 -62.5t-57 -25.5zM745 0 q-32 0 -56.5 25.5t-24.5 62.5q0 62 63 82q71 22 105 36.5t78.5 49t63 84.5t32.5 135.5t14 208.5v727q0 37 25.5 62.5t62.5 25.5q35 0 60.5 -25.5t25.5 -62.5v-727q0 -119 -12 -210t-41 -169.5t-77 -135t-119.5 -98t-170.5 -67.5q-12 -4 -29 -4zM614 1708l-112 -84 q-21 -16 -47 -16q-39 0 -67 28t-28 64q0 38 39 65l166 123q23 17 49 17q29 0 52 -17l165 -123q39 -27 39 -65q0 -36 -27.5 -64t-66.5 -28q-26 0 -47 16z" />
<glyph unicode="&#xdc;" horiz-adv-x="1335" d="M510 0q-17 0 -29 4q-99 26 -170.5 67.5t-119.5 98t-77 135t-41 169.5t-12 210v727q0 37 25.5 62.5t60.5 25.5q37 0 63 -25.5t26 -62.5v-727q0 -123 14 -208.5t33 -135.5t63 -84.5t78 -49t104 -36.5q32 -10 48 -32.5t16 -49.5q0 -37 -25 -62.5t-57 -25.5zM745 0 q-32 0 -56.5 25.5t-24.5 62.5q0 62 63 82q71 22 105 36.5t78.5 49t63 84.5t32.5 135.5t14 208.5v727q0 37 25.5 62.5t62.5 25.5q35 0 60.5 -25.5t25.5 -62.5v-727q0 -119 -12 -210t-41 -169.5t-77 -135t-119.5 -98t-170.5 -67.5q-12 -4 -29 -4zM475 1608q-43 0 -73.5 30.5 t-30.5 73.5q0 44 30.5 75.5t73.5 31.5t74 -31.5t31 -75.5q0 -43 -31 -73.5t-74 -30.5zM776 1608q-43 0 -73.5 30.5t-30.5 73.5q0 44 30.5 75.5t73.5 31.5t74 -31.5t31 -75.5q0 -43 -31 -73.5t-74 -30.5z" />
<glyph unicode="&#xdd;" horiz-adv-x="1157" d="M528 0q-35 0 -60.5 25.5t-25.5 62.5v635l-405 645q-12 21 -12 45q0 37 25.5 63.5t62.5 26.5q47 0 71 -41l418 -667q14 -20 14 -47v-660q0 -37 -25.5 -62.5t-62.5 -25.5zM684 879q-36 0 -62 26t-26 62q0 25 14 45l281 450q24 41 74 41q36 0 62 -26t26 -64q0 -23 -15 -45 l-280 -448q-24 -41 -74 -41zM520 1696q-35 0 -61.5 26.5t-26.5 61.5q0 19 10 39l62 121q12 23 33 36t45 13q35 0 61.5 -27.5t26.5 -60.5q0 -17 -11 -39l-61 -123q-23 -47 -78 -47z" />
<glyph unicode="&#xde;" horiz-adv-x="1038" d="M88 0q-35 0 -61.5 25.5t-26.5 60.5v1329q0 36 26 62t62 26q37 0 62.5 -25.5t25.5 -62.5v-1329q0 -35 -25.5 -60.5t-62.5 -25.5zM436 270h-100q-37 0 -62.5 25.5t-25.5 62.5q0 36 26 62t62 26h100q145 0 235.5 90.5t90.5 235.5q0 143 -91 234.5t-235 91.5h-100 q-37 0 -62.5 25.5t-25.5 60.5q0 37 25.5 62.5t62.5 25.5h100q219 0 361 -148q139 -142 139 -352q0 -212 -139 -354q-145 -148 -361 -148z" />
<glyph unicode="&#xdf;" horiz-adv-x="1112" d="M150 0q-36 0 -61.5 26t-25.5 62v1135q0 166 118.5 283.5t285.5 117.5t285 -117.5t118 -283.5q0 -165 -135 -324q114 -56 184 -174.5t70 -273.5q0 -94 -27 -172t-69.5 -128.5t-97.5 -85.5t-109 -50t-106 -15q-117 0 -117 86q0 77 88 88q33 4 53.5 7.5t51 12t50.5 20.5 t42.5 33t35.5 49t22 69.5t9 93.5q0 43 -6.5 79.5t-15.5 64t-27.5 50.5t-34 39t-43.5 29.5t-47.5 21t-54 15.5t-55.5 12t-60 10q-47 7 -67.5 29t-20.5 61q0 23 6 38t20.5 24.5t26.5 13.5t35 10q114 28 169.5 95t55.5 159q0 108 -67 173t-162 65t-162 -65.5t-67 -159.5v-1135 q0 -37 -25.5 -62.5t-62.5 -25.5z" />
<glyph unicode="&#xe0;" d="M918 1135q35 0 60.5 -25.5t25.5 -60.5v-963q0 -35 -25.5 -60.5t-60.5 -25.5q-37 0 -63 25.5t-26 60.5v498q0 168 -81.5 272.5t-215.5 104.5q-137 0 -224 -105.5t-87 -271.5q0 -172 91 -291t223 -119q42 0 98 23q18 6 37 6q36 0 62 -25t26 -63q0 -34 -24 -58t-61.5 -35.5 t-71.5 -16.5t-66 -5q-134 0 -246.5 78t-177 211.5t-64.5 290.5q0 150 58.5 276t170.5 202.5t256 76.5q174 0 297 -111v25q0 35 26 60.5t63 25.5zM545 1327q-55 0 -78 47l-61 123q-11 22 -11 39q0 33 26.5 60.5t61.5 27.5q24 0 45 -13t33 -36l62 -121q10 -20 10 -39 q0 -35 -26.5 -61.5t-61.5 -26.5z" />
<glyph unicode="&#xe1;" d="M918 1135q35 0 60.5 -25.5t25.5 -60.5v-963q0 -35 -25.5 -60.5t-60.5 -25.5q-37 0 -63 25.5t-26 60.5v498q0 168 -81.5 272.5t-215.5 104.5q-137 0 -224 -105.5t-87 -271.5q0 -172 91 -291t223 -119q42 0 98 23q18 6 37 6q36 0 62 -25t26 -63q0 -34 -24 -58t-61.5 -35.5 t-71.5 -16.5t-66 -5q-134 0 -246.5 78t-177 211.5t-64.5 290.5q0 150 58.5 276t170.5 202.5t256 76.5q174 0 297 -111v25q0 35 26 60.5t63 25.5zM483 1327q-35 0 -61.5 26.5t-26.5 61.5q0 17 11 39l61 121q12 23 33 36t45 13q35 0 61.5 -27.5t26.5 -60.5q0 -19 -10 -39 l-62 -123q-23 -47 -78 -47z" />
<glyph unicode="&#xe2;" d="M918 1135q35 0 60.5 -25.5t25.5 -60.5v-963q0 -35 -25.5 -60.5t-60.5 -25.5q-37 0 -63 25.5t-26 60.5v498q0 168 -81.5 272.5t-215.5 104.5q-137 0 -224 -105.5t-87 -271.5q0 -172 91 -291t223 -119q42 0 98 23q18 6 37 6q36 0 62 -25t26 -63q0 -34 -24 -58t-61.5 -35.5 t-71.5 -16.5t-66 -5q-134 0 -246.5 78t-177 211.5t-64.5 290.5q0 150 58.5 276t170.5 202.5t256 76.5q174 0 297 -111v25q0 35 26 60.5t63 25.5zM518 1427l-112 -84q-21 -16 -48 -16q-39 0 -66.5 28t-27.5 64q0 39 39 66l166 123q21 16 49 16q30 0 51 -16l166 -123 q39 -27 39 -66q0 -36 -27.5 -64t-66.5 -28q-26 0 -47 16z" />
<glyph unicode="&#xe3;" d="M918 1135q35 0 60.5 -25.5t25.5 -60.5v-963q0 -35 -25.5 -60.5t-60.5 -25.5q-37 0 -63 25.5t-26 60.5v498q0 168 -81.5 272.5t-215.5 104.5q-137 0 -224 -105.5t-87 -271.5q0 -172 91 -291t223 -119q42 0 98 23q18 6 37 6q36 0 62 -25t26 -63q0 -34 -24 -58t-61.5 -35.5 t-71.5 -16.5t-66 -5q-134 0 -246.5 78t-177 211.5t-64.5 290.5q0 150 58.5 276t170.5 202.5t256 76.5q174 0 297 -111v25q0 35 26 60.5t63 25.5zM299 1399q-32 0 -59 26t-27 64q0 41 39 72q33 26 78 44.5t84 18.5q35 0 133 -27q81 -22 104 -22q21 0 55.5 24.5t59.5 24.5 q33 0 59.5 -26t26.5 -62q0 -40 -36.5 -73t-82 -48.5t-84.5 -15.5q-40 0 -147 31q-72 20 -92 20q-18 0 -52 -25.5t-59 -25.5z" />
<glyph unicode="&#xe4;" d="M918 1135q35 0 60.5 -25.5t25.5 -60.5v-963q0 -35 -25.5 -60.5t-60.5 -25.5q-37 0 -63 25.5t-26 60.5v498q0 168 -81.5 272.5t-215.5 104.5q-137 0 -224 -105.5t-87 -271.5q0 -172 91 -291t223 -119q42 0 98 23q18 6 37 6q36 0 62 -25t26 -63q0 -34 -24 -58t-61.5 -35.5 t-71.5 -16.5t-66 -5q-134 0 -246.5 78t-177 211.5t-64.5 290.5q0 150 58.5 276t170.5 202.5t256 76.5q174 0 297 -111v25q0 35 26 60.5t63 25.5zM387 1413q-43 0 -73.5 31t-30.5 74q0 44 30.5 75t73.5 31t74 -31t31 -75q0 -43 -31 -74t-74 -31zM688 1413q-43 0 -73.5 31 t-30.5 74q0 44 30.5 75t73.5 31t74 -31t31 -75q0 -43 -31 -74t-74 -31z" />
<glyph unicode="&#xe5;" d="M918 1135q35 0 60.5 -25.5t25.5 -60.5v-963q0 -35 -25.5 -60.5t-60.5 -25.5q-37 0 -63 25.5t-26 60.5v498q0 168 -81.5 272.5t-215.5 104.5q-137 0 -224 -105.5t-87 -271.5q0 -172 91 -291t223 -119q42 0 98 23q18 6 37 6q36 0 62 -25t26 -63q0 -34 -24 -58t-61.5 -35.5 t-71.5 -16.5t-66 -5q-134 0 -246.5 78t-177 211.5t-64.5 290.5q0 150 58.5 276t170.5 202.5t256 76.5q174 0 297 -111v25q0 35 26 60.5t63 25.5zM524 1413q-43 0 -73.5 31t-30.5 74q0 44 30.5 75t73.5 31t74 -31t31 -75q0 -43 -31 -74t-74 -31z" />
<glyph unicode="&#xe6;" horiz-adv-x="1839" d="M1264 0q-140 0 -252 77.5t-171 202.5t-59 271v33q0 168 -81.5 272.5t-215.5 104.5q-137 0 -224 -105.5t-87 -271.5q0 -172 90.5 -291t222.5 -119q45 0 99 23q18 6 37 6q36 0 62 -25t26 -63q0 -34 -24 -58t-62 -35.5t-72 -16.5t-66 -5q-134 0 -246.5 78t-176.5 211.5 t-64 290.5q0 150 58.5 276t170.5 202.5t256 76.5q174 0 297 -111v25q0 35 25.5 60.5t62.5 25.5q35 0 60.5 -25.5t25.5 -60.5v-48q134 134 314 134q88 0 167.5 -34.5t136.5 -90.5t99 -126.5t63 -143t21 -138.5q0 -69 -22.5 -96t-63.5 -27h-553q-36 0 -62 26t-26 62 q0 37 25.5 62.5t62.5 25.5h455q-27 134 -110.5 220t-192.5 86q-132 0 -223 -119.5t-91 -292.5q0 -166 88 -270.5t236 -104.5q152 0 303 113q28 22 55 22q41 0 67 -25t26 -63q0 -30 -27 -61q-59 -63 -191.5 -111.5t-248.5 -48.5z" />
<glyph unicode="&#xe7;" horiz-adv-x="956" d="M532 0q-131 0 -244 76.5t-180 210.5t-67 293q0 152 61.5 278t177 201.5t263.5 75.5q129 0 231 -60q43 -21 43 -76q0 -37 -25 -61.5t-63 -24.5q-24 0 -43 11q-69 37 -141 37q-147 0 -238.5 -106t-91.5 -273q0 -172 95.5 -290t234.5 -118q66 0 137 41q24 14 47 14 q37 0 62.5 -25.5t25.5 -62.5q0 -42 -39 -71q-37 -29 -106.5 -49.5t-139.5 -20.5zM467 -365q-35 0 -61.5 27t-26.5 62q0 18 10 38l62 121q25 49 77 49q35 0 61.5 -27.5t26.5 -60.5q0 -19 -10 -39l-61 -122q-10 -22 -31.5 -35t-46.5 -13z" />
<glyph unicode="&#xe8;" horiz-adv-x="1148" d="M526 0q-141 0 -252 77.5t-169 204.5t-58 277q0 156 65 288.5t177.5 210t247.5 77.5q87 0 165.5 -34.5t135.5 -90.5t99.5 -126t63.5 -143t21 -139q0 -69 -22.5 -96t-63.5 -27h-553q-36 0 -62 26t-26 62q0 37 25.5 62.5t62.5 25.5h455q-27 134 -110.5 220t-192.5 86 q-132 0 -223 -119.5t-91 -292.5q0 -166 88 -270.5t236 -104.5q152 0 303 113q28 22 55 22q41 0 66.5 -24.5t25.5 -63.5q0 -31 -26 -61q-62 -65 -194.5 -112.5t-248.5 -47.5zM555 1327q-55 0 -78 47l-61 123q-10 20 -10 39q0 33 26.5 60.5t61.5 27.5q52 0 77 -49l62 -121 q10 -20 10 -39q0 -35 -26.5 -61.5t-61.5 -26.5z" />
<glyph unicode="&#xe9;" horiz-adv-x="1148" d="M526 0q-141 0 -252 77.5t-169 204.5t-58 277q0 156 65 288.5t177.5 210t247.5 77.5q87 0 165.5 -34.5t135.5 -90.5t99.5 -126t63.5 -143t21 -139q0 -69 -22.5 -96t-63.5 -27h-553q-36 0 -62 26t-26 62q0 37 25.5 62.5t62.5 25.5h455q-27 134 -110.5 220t-192.5 86 q-132 0 -223 -119.5t-91 -292.5q0 -166 88 -270.5t236 -104.5q152 0 303 113q28 22 55 22q41 0 66.5 -24.5t25.5 -63.5q0 -31 -26 -61q-62 -65 -194.5 -112.5t-248.5 -47.5zM494 1327q-35 0 -61.5 26.5t-26.5 61.5q0 19 10 39l61 121q12 23 33 36t45 13q35 0 61.5 -27.5 t26.5 -60.5q0 -19 -10 -39l-62 -123q-23 -47 -77 -47z" />
<glyph unicode="&#xea;" horiz-adv-x="1148" d="M526 0q-141 0 -252 77.5t-169 204.5t-58 277q0 156 65 288.5t177.5 210t247.5 77.5q87 0 165.5 -34.5t135.5 -90.5t99.5 -126t63.5 -143t21 -139q0 -69 -22.5 -96t-63.5 -27h-553q-36 0 -62 26t-26 62q0 37 25.5 62.5t62.5 25.5h455q-27 134 -110.5 220t-192.5 86 q-132 0 -223 -119.5t-91 -292.5q0 -166 88 -270.5t236 -104.5q152 0 303 113q28 22 55 22q41 0 66.5 -24.5t25.5 -63.5q0 -31 -26 -61q-62 -65 -194.5 -112.5t-248.5 -47.5zM526 1427l-112 -84q-21 -16 -47 -16q-39 0 -67 28t-28 64q0 39 39 66l166 123q21 16 49 16 q31 0 52 -16l165 -123q39 -27 39 -66q0 -36 -27.5 -64t-66.5 -28q-26 0 -47 16z" />
<glyph unicode="&#xeb;" horiz-adv-x="1148" d="M526 0q-141 0 -252 77.5t-169 204.5t-58 277q0 156 65 288.5t177.5 210t247.5 77.5q87 0 165.5 -34.5t135.5 -90.5t99.5 -126t63.5 -143t21 -139q0 -69 -22.5 -96t-63.5 -27h-553q-36 0 -62 26t-26 62q0 37 25.5 62.5t62.5 25.5h455q-27 134 -110.5 220t-192.5 86 q-132 0 -223 -119.5t-91 -292.5q0 -166 88 -270.5t236 -104.5q152 0 303 113q28 22 55 22q41 0 66.5 -24.5t25.5 -63.5q0 -31 -26 -61q-62 -65 -194.5 -112.5t-248.5 -47.5zM395 1413q-43 0 -73.5 31t-30.5 74q0 44 30.5 75t73.5 31t74 -31t31 -75q0 -43 -31 -74t-74 -31z M696 1413q-43 0 -73.5 31t-30.5 74q0 44 30.5 75t73.5 31t74 -31t31 -75q0 -43 -31 -74t-74 -31z" />
<glyph unicode="&#xec;" horiz-adv-x="391" d="M154 0q-35 0 -60.5 25.5t-25.5 60.5v963q0 35 25.5 60.5t60.5 25.5q37 0 62.5 -25.5t25.5 -60.5v-963q0 -35 -25.5 -60.5t-62.5 -25.5zM113 1327q-55 0 -78 47l-62 123q-10 20 -10 39q0 33 26.5 60.5t61.5 27.5q24 0 45 -13t33 -36l61 -121q11 -22 11 -39 q0 -35 -26.5 -61.5t-61.5 -26.5z" />
<glyph unicode="&#xed;" horiz-adv-x="391" d="M154 0q-35 0 -60.5 25.5t-25.5 60.5v963q0 35 25.5 60.5t60.5 25.5q37 0 62.5 -25.5t25.5 -60.5v-963q0 -35 -25.5 -60.5t-62.5 -25.5zM137 1327q-35 0 -61.5 26.5t-26.5 61.5q0 19 10 39l62 121q12 23 33 36t45 13q35 0 61.5 -27.5t26.5 -60.5q0 -17 -11 -39l-61 -123 q-23 -47 -78 -47z" />
<glyph unicode="&#xee;" horiz-adv-x="391" d="M154 0q-35 0 -60.5 25.5t-25.5 60.5v963q0 35 25.5 60.5t60.5 25.5q37 0 62.5 -25.5t25.5 -60.5v-963q0 -35 -25.5 -60.5t-62.5 -25.5zM127 1427l-113 -84q-21 -16 -47 -16q-39 0 -66.5 28t-27.5 64q0 39 39 66l166 123q21 16 49 16q30 0 51 -16l166 -123q39 -27 39 -66 q0 -36 -27.5 -64t-66.5 -28q-26 0 -47 16z" />
<glyph unicode="&#xef;" horiz-adv-x="391" d="M154 0q-35 0 -60.5 25.5t-25.5 60.5v963q0 35 25.5 60.5t60.5 25.5q37 0 62.5 -25.5t25.5 -60.5v-963q0 -35 -25.5 -60.5t-62.5 -25.5zM-4 1413q-43 0 -74 31t-31 74q0 44 31 75t74 31t73.5 -31t30.5 -75q0 -43 -30.5 -74t-73.5 -31zM297 1413q-43 0 -73.5 31t-30.5 74 q0 44 30.5 75t73.5 31t73.5 -31t30.5 -75q0 -43 -30.5 -74t-73.5 -31z" />
<glyph unicode="&#xf0;" horiz-adv-x="964" d="M459 0q-86 0 -168 33.5t-146 95.5q-133 133 -145 342q0 127 50 240.5t146.5 187.5t217.5 74q12 0 25 -1t20 -1q33 -4 55.5 -34t22.5 -63q-3 -33 -28.5 -55t-59.5 -22h-31q-96 0 -162 -72q-82 -92 -82 -248q10 -135 87 -219t220 -84q10 0 20.5 1t35 8t45 19.5t45 39t42 63 t29 95t11.5 130.5q0 83 -16 162.5t-38.5 142t-63.5 130t-74 112.5t-88 103t-87 89t-88 83q-33 30 -33 67q0 35 26.5 61.5t59.5 26.5q31 0 58 -20q104 -84 191 -181.5t163.5 -218.5t120 -267.5t43.5 -299.5q0 -122 -29 -217t-72.5 -150.5t-102.5 -91.5t-112.5 -48.5 t-107.5 -12.5z" />
<glyph unicode="&#xf1;" horiz-adv-x="1075" d="M154 0q-35 0 -60.5 25.5t-25.5 60.5v963q0 35 25.5 60.5t60.5 25.5q37 0 62.5 -25.5t25.5 -60.5v-963q0 -35 -25.5 -60.5t-62.5 -25.5zM846 0q-35 0 -60.5 25.5t-25.5 60.5v631q0 96 -60 170t-161 74q-38 0 -103 -21q-15 -6 -33 -6q-37 0 -62.5 25.5t-25.5 62.5 q0 34 24 58t62 35t71 15.5t65 4.5q175 0 292 -134q105 -121 105 -284v-631q0 -35 -25.5 -60.5t-62.5 -25.5zM254 1399q-32 0 -59 26t-27 64q0 41 39 72q33 26 78 44.5t84 18.5q35 0 133 -27q81 -22 104 -22q21 0 55.5 24.5t59.5 24.5q33 0 59.5 -26t26.5 -62 q0 -40 -36.5 -73t-82 -48.5t-84.5 -15.5q-40 0 -147 31q-72 20 -92 20q-19 0 -53 -25.5t-58 -25.5z" />
<glyph unicode="&#xf2;" d="M666 0q-45 0 -70 26t-25 64q0 21 9 37t20 24t31 19q40 24 63.5 39.5t57 47t51.5 65t31.5 86.5t13.5 118q0 187 -90 311t-223 124t-223.5 -124.5t-90.5 -310.5q0 -62 12 -113.5t30.5 -85.5t49.5 -65t58 -50t67 -42q32 -17 46 -33.5t14 -46.5q0 -39 -26 -64.5t-69 -25.5 q-8 0 -20 4q-108 36 -186 122t-114 193.5t-36 225.5q0 159 65 294.5t178 215.5t247 80q100 0 190 -47t154.5 -127t102.5 -192t38 -237q0 -382 -336 -528q-10 -4 -20 -4zM512 1327q-55 0 -78 47l-61 123q-11 22 -11 39q0 33 27 60.5t62 27.5q52 0 77 -49l62 -121 q10 -20 10 -39q0 -35 -26.5 -61.5t-61.5 -26.5z" />
<glyph unicode="&#xf3;" d="M666 0q-45 0 -70 26t-25 64q0 21 9 37t20 24t31 19q40 24 63.5 39.5t57 47t51.5 65t31.5 86.5t13.5 118q0 187 -90 311t-223 124t-223.5 -124.5t-90.5 -310.5q0 -62 12 -113.5t30.5 -85.5t49.5 -65t58 -50t67 -42q32 -17 46 -33.5t14 -46.5q0 -39 -26 -64.5t-69 -25.5 q-8 0 -20 4q-108 36 -186 122t-114 193.5t-36 225.5q0 159 65 294.5t178 215.5t247 80q100 0 190 -47t154.5 -127t102.5 -192t38 -237q0 -382 -336 -528q-10 -4 -20 -4zM537 1327q-35 0 -61.5 26.5t-26.5 61.5q0 19 10 39l61 121q12 23 33 36t45 13q35 0 61.5 -27.5 t26.5 -60.5q0 -19 -10 -39l-62 -123q-23 -47 -77 -47z" />
<glyph unicode="&#xf4;" d="M666 0q-45 0 -70 26t-25 64q0 21 9 37t20 24t31 19q40 24 63.5 39.5t57 47t51.5 65t31.5 86.5t13.5 118q0 187 -90 311t-223 124t-223.5 -124.5t-90.5 -310.5q0 -62 12 -113.5t30.5 -85.5t49.5 -65t58 -50t67 -42q32 -17 46 -33.5t14 -46.5q0 -39 -26 -64.5t-69 -25.5 q-8 0 -20 4q-108 36 -186 122t-114 193.5t-36 225.5q0 159 65 294.5t178 215.5t247 80q100 0 190 -47t154.5 -127t102.5 -192t38 -237q0 -382 -336 -528q-10 -4 -20 -4zM526 1427l-112 -84q-21 -16 -47 -16q-39 0 -67 28t-28 64q0 39 39 66l166 123q21 16 49 16q31 0 52 -16 l165 -123q39 -27 39 -66q0 -36 -27.5 -64t-66.5 -28q-26 0 -47 16z" />
<glyph unicode="&#xf5;" d="M666 0q-45 0 -70 26t-25 64q0 21 9 37t20 24t31 19q40 24 63.5 39.5t57 47t51.5 65t31.5 86.5t13.5 118q0 187 -90 311t-223 124t-223.5 -124.5t-90.5 -310.5q0 -62 12 -113.5t30.5 -85.5t49.5 -65t58 -50t67 -42q32 -17 46 -33.5t14 -46.5q0 -39 -26 -64.5t-69 -25.5 q-8 0 -20 4q-108 36 -186 122t-114 193.5t-36 225.5q0 159 65 294.5t178 215.5t247 80q100 0 190 -47t154.5 -127t102.5 -192t38 -237q0 -382 -336 -528q-10 -4 -20 -4zM309 1399q-32 0 -59 26t-27 64q0 41 39 72q33 26 78 44.5t84 18.5q35 0 133 -27q81 -22 105 -22 q21 0 55 24.5t59 24.5q33 0 59.5 -26t26.5 -62q0 -40 -36.5 -73t-82 -48.5t-84.5 -15.5q-40 0 -147 31q-72 20 -92 20q-18 0 -52 -25.5t-59 -25.5z" />
<glyph unicode="&#xf6;" d="M666 0q-45 0 -70 26t-25 64q0 21 9 37t20 24t31 19q40 24 63.5 39.5t57 47t51.5 65t31.5 86.5t13.5 118q0 187 -90 311t-223 124t-223.5 -124.5t-90.5 -310.5q0 -62 12 -113.5t30.5 -85.5t49.5 -65t58 -50t67 -42q32 -17 46 -33.5t14 -46.5q0 -39 -26 -64.5t-69 -25.5 q-8 0 -20 4q-108 36 -186 122t-114 193.5t-36 225.5q0 159 65 294.5t178 215.5t247 80q100 0 190 -47t154.5 -127t102.5 -192t38 -237q0 -382 -336 -528q-10 -4 -20 -4zM395 1413q-43 0 -73.5 31t-30.5 74q0 44 30.5 75t73.5 31t74 -31t31 -75q0 -43 -31 -74t-74 -31z M696 1413q-43 0 -73.5 31t-30.5 74q0 44 30.5 75t73.5 31t74 -31t31 -75q0 -43 -31 -74t-74 -31z" />
<glyph unicode="&#xf7;" horiz-adv-x="1171" d="M12 532q0 35 25.5 60.5t60.5 25.5h895q35 0 61.5 -25.5t26.5 -60.5q0 -36 -26 -62t-62 -26h-895q-35 0 -60.5 25.5t-25.5 62.5zM528 82q-43 0 -73.5 30.5t-30.5 73.5q0 44 30.5 75.5t73.5 31.5t74 -31.5t31 -75.5q0 -43 -31 -73.5t-74 -30.5zM528 784q-43 0 -73.5 31 t-30.5 74t30.5 73.5t73.5 30.5t74 -30.5t31 -73.5t-31 -74t-74 -31z" />
<glyph unicode="&#xf8;" d="M549 0q-73 0 -123 16q-64 22 -64 84q0 38 28 62t65 24q13 0 42 -6t52 -6q123 0 214 120t91 288q0 32 -6 84q0 33 24 57.5t64 28.5q33 0 56.5 -19.5t29.5 -54.5q6 -37 6 -98q0 -120 -39 -228t-103.5 -185t-153 -122t-183.5 -45zM92 -20q-36 0 -61 24.5t-25 58.5 q0 32 21 56l895 1048q25 31 65 31q35 0 61.5 -25.5t26.5 -60.5q0 -34 -20 -57l-895 -1045q-27 -30 -68 -30zM137 406q-34 0 -59 22t-29 57q-4 40 -4 86q0 107 35 208t97.5 180t157 127.5t204.5 48.5q151 0 151 -88q0 -39 -27 -67t-63 -28q-7 0 -27 3t-38 3q-132 0 -222 -112 t-90 -281q0 -40 2 -71q0 -34 -24 -59t-64 -29z" />
<glyph unicode="&#xf9;" horiz-adv-x="1075" d="M621 0q-37 0 -61.5 26.5t-24.5 61.5q0 28 15.5 50.5t41.5 31.5q78 28 123 96.5t45 161.5v621q0 35 25.5 60.5t60.5 25.5q37 0 62.5 -25.5t25.5 -60.5v-621q0 -149 -76 -262.5t-207 -159.5q-15 -6 -30 -6zM373 0q-14 0 -29 6q-131 46 -207 159.5t-76 262.5v621 q0 35 26 60.5t63 25.5q35 0 60.5 -25.5t25.5 -60.5v-621q0 -94 44.5 -162t122.5 -96q26 -9 42 -31.5t16 -50.5q0 -36 -25 -62t-63 -26zM461 1327q-55 0 -78 47l-61 123q-11 22 -11 39q0 33 26.5 60.5t61.5 27.5q24 0 45 -13t33 -36l62 -121q10 -20 10 -39q0 -35 -26.5 -61.5 t-61.5 -26.5z" />
<glyph unicode="&#xfa;" horiz-adv-x="1075" d="M621 0q-37 0 -61.5 26.5t-24.5 61.5q0 28 15.5 50.5t41.5 31.5q78 28 123 96.5t45 161.5v621q0 35 25.5 60.5t60.5 25.5q37 0 62.5 -25.5t25.5 -60.5v-621q0 -149 -76 -262.5t-207 -159.5q-15 -6 -30 -6zM373 0q-14 0 -29 6q-131 46 -207 159.5t-76 262.5v621 q0 35 26 60.5t63 25.5q35 0 60.5 -25.5t25.5 -60.5v-621q0 -94 44.5 -162t122.5 -96q26 -9 42 -31.5t16 -50.5q0 -36 -25 -62t-63 -26zM485 1327q-35 0 -61.5 26.5t-26.5 61.5q0 17 11 39l61 121q12 23 33 36t45 13q35 0 61.5 -27.5t26.5 -60.5q0 -19 -10 -39l-62 -123 q-23 -47 -78 -47z" />
<glyph unicode="&#xfb;" horiz-adv-x="1075" d="M621 0q-37 0 -61.5 26.5t-24.5 61.5q0 28 15.5 50.5t41.5 31.5q78 28 123 96.5t45 161.5v621q0 35 25.5 60.5t60.5 25.5q37 0 62.5 -25.5t25.5 -60.5v-621q0 -149 -76 -262.5t-207 -159.5q-15 -6 -30 -6zM373 0q-14 0 -29 6q-131 46 -207 159.5t-76 262.5v621 q0 35 26 60.5t63 25.5q35 0 60.5 -25.5t25.5 -60.5v-621q0 -94 44.5 -162t122.5 -96q26 -9 42 -31.5t16 -50.5q0 -36 -25 -62t-63 -26zM475 1427l-113 -84q-21 -16 -47 -16q-39 0 -66.5 28t-27.5 64q0 39 39 66l166 123q21 16 49 16q30 0 51 -16l166 -123q39 -27 39 -66 q0 -36 -27.5 -64t-66.5 -28q-26 0 -47 16z" />
<glyph unicode="&#xfc;" horiz-adv-x="1075" d="M621 0q-37 0 -61.5 26.5t-24.5 61.5q0 28 15.5 50.5t41.5 31.5q78 28 123 96.5t45 161.5v621q0 35 25.5 60.5t60.5 25.5q37 0 62.5 -25.5t25.5 -60.5v-621q0 -149 -76 -262.5t-207 -159.5q-15 -6 -30 -6zM373 0q-14 0 -29 6q-131 46 -207 159.5t-76 262.5v621 q0 35 26 60.5t63 25.5q35 0 60.5 -25.5t25.5 -60.5v-621q0 -94 44.5 -162t122.5 -96q26 -9 42 -31.5t16 -50.5q0 -36 -25 -62t-63 -26zM344 1413q-43 0 -73.5 31t-30.5 74q0 44 30.5 75t73.5 31t74 -31t31 -75q0 -43 -31 -74t-74 -31zM645 1413q-43 0 -73.5 31t-30.5 74 q0 44 30.5 75t73.5 31t74 -31t31 -75q0 -43 -31 -74t-74 -31z" />
<glyph unicode="&#xfd;" horiz-adv-x="999" d="M324 -438q-37 0 -61.5 26.5t-24.5 59.5q0 18 4 28l491 1401q9 26 31.5 42t50.5 16q17 0 29 -5q26 -9 41.5 -31.5t15.5 -49.5q0 -19 -4 -29l-491 -1401q-9 -26 -31.5 -41.5t-50.5 -15.5zM338 350q-28 0 -50.5 16.5t-31.5 43.5l-213 610q-4 10 -4 29q0 35 25.5 60.5 t60.5 25.5q27 0 50 -16t32 -42l213 -610q4 -10 4 -29q0 -35 -25.5 -61.5t-60.5 -26.5zM535 1327q-35 0 -62 26.5t-27 61.5q0 17 11 39l61 121q12 23 33 36t45 13q35 0 61.5 -27.5t26.5 -60.5q0 -19 -10 -39l-62 -123q-23 -47 -77 -47z" />
<glyph unicode="&#xfe;" horiz-adv-x="1038" d="M88 0q-35 0 -61.5 25.5t-26.5 60.5v1329q0 36 26 62t62 26q37 0 62.5 -25.5t25.5 -62.5v-1329q0 -35 -25.5 -60.5t-62.5 -25.5zM436 270h-100q-37 0 -62.5 25.5t-25.5 62.5q0 36 26 62t62 26h100q145 0 235.5 90.5t90.5 235.5q0 143 -91 234.5t-235 91.5h-100 q-37 0 -62.5 25.5t-25.5 60.5q0 37 25.5 62.5t62.5 25.5h100q219 0 361 -148q67 -67 103 -158.5t36 -193.5q0 -212 -139 -354q-145 -148 -361 -148z" />
<glyph unicode="&#xff;" horiz-adv-x="999" d="M324 -438q-37 0 -61.5 26.5t-24.5 59.5q0 18 4 28l491 1401q9 26 31.5 42t50.5 16q17 0 29 -5q26 -9 41.5 -31.5t15.5 -49.5q0 -19 -4 -29l-491 -1401q-9 -26 -31.5 -41.5t-50.5 -15.5zM338 350q-28 0 -50.5 16.5t-31.5 43.5l-213 610q-4 10 -4 29q0 35 25.5 60.5 t60.5 25.5q27 0 50 -16t32 -42l213 -610q4 -10 4 -29q0 -35 -25.5 -61.5t-60.5 -26.5zM340 1413q-43 0 -73.5 31t-30.5 74q0 44 30.5 75t73.5 31t73.5 -31t30.5 -75q0 -43 -30.5 -74t-73.5 -31zM641 1413q-43 0 -73.5 31t-30.5 74q0 44 30.5 75t73.5 31t73.5 -31t30.5 -75 q0 -43 -30.5 -74t-73.5 -31z" />
<glyph unicode="&#x152;" horiz-adv-x="1959" d="M1231 913q-37 0 -62.5 25.5t-25.5 62.5v414q0 36 26 62t62 26h538q38 0 63.5 -26t25.5 -62q0 -35 -26 -61.5t-63 -26.5h-452v-326q0 -37 -25.5 -62.5t-60.5 -25.5zM1231 0q-37 0 -62 25q-26 26 -26 61v668q0 37 25.5 62.5t62.5 25.5h538q38 0 63.5 -26t25.5 -62 q0 -35 -26 -60.5t-63 -25.5h-452v-494h452q38 0 63.5 -26t25.5 -62q0 -35 -26 -60.5t-63 -25.5h-3h-3h-3h-3h-3h-3h-3h-3h-3h-3h-3h-3h-3h-3h-3h-3h-3h-3h-3h-3h-3h-3h-3h-3h-3h-3h-3h-3h-3h-3h-3h-3h-3h-3h-3h-3h-3h-3h-3h-3h-3h-3h-3h-3h-3h-3h-3h-3h-3h-3h-3h-3h-3h-3h-3 h-3h-3h-3h-3h-3h-3h-3h-3h-3h-3h-3h-3h-3h-3h-3h-3h-3h-3h-3h-3h-3h-3h-3h-3h-3h-3h-3h-3h-3h-3h-3h-3h-3h-3h-3h-3h-3h-3h-3h-3h-3h-3h-3h-3h-3h-3h-3h-3h-3h-3h-3h-3h-3h-3h-3h-3h-3h-3h-3h-3h-3h-3h-3h-3h-3h-3h-3h-3h-3h-3h-3h-3h-3h-3h-3h-3h-3h-3h-3h-3h-3h-2h-3h-3 h-3h-3h-3h-3h-3h-3h-3h-3h-3h-3h-3h-3h-3h-3h-3h-3h-3h-3h-3h-3h-3h-3h-3h-3h-3h-3h-3h-3h-3h-2h-3h-3h-3h-3h-3h-3h-3h-2h-10zM678 0q-124 0 -239.5 60t-200.5 160.5t-136 240.5t-51 293t51 293t136.5 241t201 161t240.5 60q93 0 191 -32.5t165 -92.5q35 -32 35 -67 q0 -38 -26 -63t-62 -25q-26 0 -53 18q-41 28 -69 43.5t-73 29t-94 13.5q-129 0 -236.5 -78t-169 -211t-61.5 -290t62 -290.5t168 -211.5t231 -78q120 0 242 86q32 21 55 21q34 0 60 -27t26 -64q0 -35 -35 -67q-55 -52 -156 -87.5t-202 -35.5z" />
<glyph unicode="&#x153;" horiz-adv-x="2031" d="M1327 0q-123 0 -222.5 58t-162.5 159q-88 -141 -256 -213q-10 -4 -20 -4q-45 0 -70 26t-25 64q0 21 9 37t20 24t31 19q40 24 63.5 39.5t57 47t51.5 65t31.5 86.5t13.5 118q0 187 -90 311t-223 124t-223.5 -124.5t-90.5 -310.5q0 -62 12 -113.5t30.5 -85.5t49.5 -65 t58 -50t67 -42q32 -17 46 -33.5t14 -46.5q0 -39 -26 -64.5t-69 -25.5q-8 0 -20 4q-108 36 -186 122t-114 193.5t-36 225.5q0 159 65 294.5t178 215.5t247 80q122 0 225.5 -67t169.5 -183q68 115 174 182.5t231 67.5q87 0 166 -34.5t136 -90.5t99.5 -126t63.5 -143t21 -139 q0 -69 -22.5 -96t-63.5 -27h-553q-36 0 -62 26t-26 62q0 37 25.5 62.5t62.5 25.5h454q-27 134 -110.5 220t-192.5 86q-132 0 -222.5 -119.5t-90.5 -292.5q0 -166 88 -270.5t236 -104.5q152 0 303 113q28 22 55 22q41 0 66.5 -24.5t25.5 -63.5q0 -30 -27 -61 q-63 -66 -194.5 -113t-247.5 -47z" />
<glyph unicode="&#x178;" horiz-adv-x="1157" d="M528 0q-35 0 -60.5 25.5t-25.5 62.5v635l-405 645q-12 21 -12 45q0 37 25.5 63.5t62.5 26.5q47 0 71 -41l418 -667q14 -20 14 -47v-660q0 -37 -25.5 -62.5t-62.5 -25.5zM684 879q-36 0 -62 26t-26 62q0 25 14 45l281 450q24 41 74 41q36 0 62 -26t26 -64q0 -23 -15 -45 l-280 -448q-24 -41 -74 -41zM422 1782q-43 0 -74 30.5t-31 73.5q0 44 31 75.5t74 31.5t73.5 -31.5t30.5 -75.5q0 -43 -30.5 -73.5t-73.5 -30.5zM723 1782q-43 0 -74 30.5t-31 73.5q0 44 31 75.5t74 31.5t73.5 -31.5t30.5 -75.5q0 -43 -30.5 -73.5t-73.5 -30.5z" />
<glyph unicode="&#x2c6;" horiz-adv-x="673" d="M295 1427l-113 -84q-21 -16 -47 -16q-39 0 -66.5 28t-27.5 64q0 39 39 66l166 123q21 16 49 16q30 0 51 -16l166 -123q39 -27 39 -66q0 -36 -27.5 -64t-66.5 -28q-26 0 -47 16z" />
<glyph unicode="&#x2dc;" horiz-adv-x="831" d="M141 1399q-32 0 -59 26t-27 64q0 41 39 72q33 26 78 44.5t84 18.5q35 0 133 -27q81 -22 105 -22q21 0 55 24.5t59 24.5q33 0 59.5 -26t26.5 -62q0 -40 -36 -73t-81.5 -48.5t-84.5 -15.5q-41 0 -148 31q-72 20 -92 20q-18 0 -52 -25.5t-59 -25.5z" />
<glyph unicode="&#x2000;" horiz-adv-x="996" />
<glyph unicode="&#x2001;" horiz-adv-x="1993" />
<glyph unicode="&#x2002;" horiz-adv-x="996" />
<glyph unicode="&#x2003;" horiz-adv-x="1993" />
<glyph unicode="&#x2004;" horiz-adv-x="664" />
<glyph unicode="&#x2005;" horiz-adv-x="498" />
<glyph unicode="&#x2006;" horiz-adv-x="332" />
<glyph unicode="&#x2007;" horiz-adv-x="332" />
<glyph unicode="&#x2008;" horiz-adv-x="249" />
<glyph unicode="&#x2009;" horiz-adv-x="398" />
<glyph unicode="&#x200a;" horiz-adv-x="110" />
<glyph unicode="&#x2010;" horiz-adv-x="790" d="M559 446h-412q-35 0 -60.5 25.5t-25.5 60.5q0 37 25.5 63t60.5 26h412q37 0 62.5 -26t25.5 -63q0 -35 -25.5 -60.5t-62.5 -25.5z" />
<glyph unicode="&#x2011;" horiz-adv-x="790" d="M559 446h-412q-35 0 -60.5 25.5t-25.5 60.5q0 37 25.5 63t60.5 26h412q37 0 62.5 -26t25.5 -63q0 -35 -25.5 -60.5t-62.5 -25.5z" />
<glyph unicode="&#x2012;" horiz-adv-x="790" d="M559 446h-412q-35 0 -60.5 25.5t-25.5 60.5q0 37 25.5 63t60.5 26h412q37 0 62.5 -26t25.5 -63q0 -35 -25.5 -60.5t-62.5 -25.5z" />
<glyph unicode="&#x2013;" horiz-adv-x="1073" d="M840 446h-690q-35 0 -61 25.5t-26 60.5q0 37 26 63t61 26h690q37 0 62.5 -26t25.5 -63q0 -35 -25.5 -60.5t-62.5 -25.5z" />
<glyph unicode="&#x2014;" horiz-adv-x="1515" d="M1280 446h-1128q-35 0 -60.5 25.5t-25.5 60.5q0 37 25.5 63t60.5 26h1128q37 0 62.5 -26t25.5 -63q0 -35 -25.5 -60.5t-62.5 -25.5z" />
<glyph unicode="&#x2018;" horiz-adv-x="454" d="M260 1157q-55 0 -78 47l-147 293q-10 20 -10 39q0 33 26.5 60.5t61.5 27.5q52 0 77 -49l148 -291q10 -20 10 -39q0 -35 -26.5 -61.5t-61.5 -26.5z" />
<glyph unicode="&#x2019;" horiz-adv-x="452" d="M113 1157q-35 0 -61.5 26.5t-26.5 61.5q0 19 10 39l147 291q12 23 33 36t45 13q35 0 61.5 -27.5t26.5 -60.5q0 -19 -10 -39l-148 -293q-23 -47 -77 -47z" />
<glyph unicode="&#x201a;" horiz-adv-x="452" d="M113 1157q-35 0 -61.5 26.5t-26.5 61.5q0 19 10 39l147 291q12 23 33 36t45 13q35 0 61.5 -27.5t26.5 -60.5q0 -19 -10 -39l-148 -293q-23 -47 -77 -47z" />
<glyph unicode="&#x201c;" horiz-adv-x="788" d="M575 1157q-54 0 -77 47l-148 293q-10 20 -10 39q0 33 26.5 60.5t61.5 27.5q24 0 45 -13t33 -36l147 -291q11 -22 11 -39q0 -35 -27 -61.5t-62 -26.5zM279 1157q-55 0 -78 47l-148 293q-10 20 -10 39q0 33 26.5 60.5t61.5 27.5q24 0 45 -13t33 -36l147 -291q11 -22 11 -39 q0 -35 -26.5 -61.5t-61.5 -26.5z" />
<glyph unicode="&#x201d;" horiz-adv-x="788" d="M131 1157q-35 0 -61.5 26.5t-26.5 61.5q0 19 10 39l148 291q12 23 33 36t45 13q35 0 61.5 -27.5t26.5 -60.5q0 -17 -11 -39l-147 -293q-23 -47 -78 -47zM428 1157q-35 0 -61.5 26.5t-26.5 61.5q0 19 10 39l148 291q25 49 77 49q35 0 62 -27.5t27 -60.5q0 -17 -11 -39 l-147 -293q-23 -47 -78 -47z" />
<glyph unicode="&#x201e;" horiz-adv-x="788" d="M131 1157q-35 0 -61.5 26.5t-26.5 61.5q0 19 10 39l148 291q12 23 33 36t45 13q35 0 61.5 -27.5t26.5 -60.5q0 -17 -11 -39l-147 -293q-23 -47 -78 -47zM428 1157q-35 0 -61.5 26.5t-26.5 61.5q0 19 10 39l148 291q25 49 77 49q35 0 62 -27.5t27 -60.5q0 -17 -11 -39 l-147 -293q-23 -47 -78 -47z" />
<glyph unicode="&#x2022;" horiz-adv-x="808" d="M47 430q0 131 92.5 224.5t222.5 93.5q132 0 226 -93.5t94 -224.5q0 -132 -94 -224.5t-226 -92.5q-131 0 -223 92.5t-92 224.5z" />
<glyph unicode="&#x2026;" horiz-adv-x="964" d="M166 -4q-43 0 -74 30.5t-31 73.5q0 44 31 75.5t74 31.5t73.5 -31.5t30.5 -75.5q0 -43 -30.5 -73.5t-73.5 -30.5zM438 -4q-43 0 -73.5 30.5t-30.5 73.5q0 44 30.5 75.5t73.5 31.5t74 -31.5t31 -75.5q0 -43 -31 -73.5t-74 -30.5zM717 -4q-43 0 -74 30.5t-31 73.5 q0 44 31 75.5t74 31.5t73.5 -31.5t30.5 -75.5q0 -43 -30.5 -73.5t-73.5 -30.5z" />
<glyph unicode="&#x202f;" horiz-adv-x="398" />
<glyph unicode="&#x2039;" horiz-adv-x="518" d="M289 152q-53 0 -78 45l-184 335q-11 22 -11 43q0 19 11 41l184 338q25 45 78 45q35 0 61.5 -27t26.5 -61q0 -23 -12 -41l-162 -295l162 -294q12 -21 12 -43q0 -34 -26.5 -60t-61.5 -26z" />
<glyph unicode="&#x203a;" horiz-adv-x="520" d="M150 152q-35 0 -62 26t-27 60q0 20 13 43l162 294l-162 295q-13 22 -13 41q0 34 27 61t62 27q52 0 77 -45l185 -338q10 -20 10 -41q0 -23 -10 -43l-185 -335q-25 -45 -77 -45z" />
<glyph unicode="&#x205f;" horiz-adv-x="498" />
<glyph unicode="&#x20ac;" horiz-adv-x="1413" d="M805 0q-155 0 -298 85.5t-206 186.5q-14 22 -14 45q0 37 25 64t63 27q36 0 69 -37q44 -49 70.5 -74.5t72.5 -58.5t99 -47.5t119 -14.5q69 0 141.5 19t109.5 35t87 42q30 15 49 15q36 0 62 -25t26 -61q0 -46 -39 -74q-54 -42 -190 -84.5t-246 -42.5zM360 1077 q-37 0 -61.5 27t-24.5 63q0 21 15 45q78 132 226.5 211.5t289.5 79.5q116 0 241.5 -51.5t178.5 -110.5q24 -27 24 -59q0 -38 -25.5 -64t-62.5 -26q-25 0 -57 25q-141 110 -303 110q-54 0 -102 -13t-81 -30t-71 -49.5t-58 -54t-55 -62.5q-33 -41 -74 -41zM860 829h-749 q-37 0 -62.5 25.5t-25.5 60.5q0 37 25.5 63t62.5 26h749q35 0 60.5 -26t25.5 -63q0 -35 -25.5 -60.5t-60.5 -25.5zM860 483h-749q-37 0 -62.5 24.5t-25.5 59.5q0 36 26 62t62 26h749q35 0 60.5 -26.5t25.5 -61.5t-25.5 -59.5t-60.5 -24.5z" />
<glyph unicode="&#x2122;" horiz-adv-x="1968" d="M725 725q-35 0 -61.5 25.5t-26.5 58.5q0 11 4 27l201 725q7 25 28.5 43.5t55.5 19.5q59 0 78 -49l337 -725q9 -18 9 -35q0 -36 -26 -63t-60 -27q-25 0 -47.5 14t-32.5 37l-238 510l-137 -498q-7 -27 -31.5 -45t-52.5 -18zM1800 725q-29 0 -53 17.5t-31 45.5l-137 496 l-100 -215q-10 -23 -32.5 -37t-47.5 -14q-35 0 -60.5 25.5t-25.5 62.5q0 21 8 37l199 432q22 49 86 49q27 -1 48 -18.5t29 -44.5l201 -725q2 -8 2 -19q0 -39 -25.5 -65.5t-60.5 -26.5zM641 1450h-555q-35 0 -60.5 25.5t-25.5 60.5q0 37 25.5 62.5t60.5 25.5h555 q37 0 62.5 -25.5t25.5 -62.5q0 -35 -25.5 -60.5t-62.5 -25.5zM365 727q-37 0 -63 25.5t-26 60.5v477q0 35 26 60.5t63 25.5q35 0 60.5 -25.5t25.5 -60.5v-477q0 -35 -25.5 -60.5t-60.5 -25.5z" />
<glyph unicode="&#x25fc;" horiz-adv-x="1136" d="M0 1137h1137v-1137h-1137v1137z" />
</font>
</defs>
</svg>
